<?xml version="1.0" encoding="UTF-8" standalone="no"?>
<svg
   xmlns:dc="http://purl.org/dc/elements/1.1/"
   xmlns:cc="http://creativecommons.org/ns#"
   xmlns:rdf="http://www.w3.org/1999/02/22-rdf-syntax-ns#"
   xmlns:svg="http://www.w3.org/2000/svg"
   xmlns="http://www.w3.org/2000/svg"
   xmlns:xlink="http://www.w3.org/1999/xlink"
   xmlns:sodipodi="http://sodipodi.sourceforge.net/DTD/sodipodi-0.dtd"
   xmlns:inkscape="http://www.inkscape.org/namespaces/inkscape"
   height="500"
   id="svg10075"
   version="1.1"
   width="840"
   inkscape:version="0.48.3.1 r9886"
   sodipodi:docname="goa3.svg">
  <sodipodi:namedview
     pagecolor="#ffffff"
     bordercolor="#666666"
     borderopacity="1"
     objecttolerance="10"
     gridtolerance="10"
     guidetolerance="10"
     inkscape:pageopacity="0"
     inkscape:pageshadow="2"
     inkscape:window-width="1920"
     inkscape:window-height="1025"
     id="namedview93"
     showgrid="false"
     inkscape:zoom="1.0606602"
     inkscape:cx="654.17409"
     inkscape:cy="392.76159"
     inkscape:window-x="0"
     inkscape:window-y="27"
     inkscape:window-maximized="1"
     inkscape:current-layer="svg10075" />
  <defs
     id="defs10077">
    <linearGradient
       id="RHEL7">
      <stop
         id="stop13323"
         offset="0"
         style="stop-color:#a3dbe8;stop-opacity:1" />
      <stop
         id="stop13325"
         offset="1"
         style="stop-color:#a3dbe8;stop-opacity:1" />
    </linearGradient>
    <linearGradient
       id="GNOME">
      <stop
         id="stop11074"
         offset="0"
         style="stop-color:#eeedec;stop-opacity:1" />
      <stop
         id="stop11076"
         offset="1"
         style="stop-color:#eeedec;stop-opacity:1" />
    </linearGradient>
    <linearGradient
       id="BLANK">
      <stop
         id="stop7012"
         offset="0"
         style="stop-color:#eeedec;stop-opacity:0" />
      <stop
         id="stop7014"
         offset="1"
         style="stop-color:#eeedec;stop-opacity:0" />
    </linearGradient>
    <linearGradient
       gradientTransform="matrix(1.1834379,0,0,0.896461,5.7016703,415.60382)"
       gradientUnits="userSpaceOnUse"
       id="linearGradient7064"
       x1="-18.33782"
       x2="713.42853"
       y1="490.54935"
       y2="490.54935"
       xlink:href="#GNOME" />
    <filter
       height="1.1308649"
       id="filter5601"
       width="1.2058235"
       x="-0.10291173"
       y="-0.065432459">
      <feGaussianBlur
         id="feGaussianBlur5603"
         stdDeviation="0.610872" />
    </filter>
    <linearGradient
       id="linearGradient5716">
      <stop
         id="stop5718"
         offset="0"
         style="stop-color:#000000;stop-opacity:1" />
      <stop
         id="stop5720"
         offset="1"
         style="stop-color:#484848;stop-opacity:1" />
    </linearGradient>
    <linearGradient
       gradientUnits="userSpaceOnUse"
       id="linearGradient17453"
       x1="29.089951"
       x2="33.971455"
       y1="11.772627"
       y2="9.7093649"
       xlink:href="#linearGradient5716" />
    <linearGradient
       gradientUnits="userSpaceOnUse"
       id="linearGradient17455"
       x1="29.089951"
       x2="33.971455"
       y1="11.772627"
       y2="9.7093649"
       xlink:href="#linearGradient5716" />
  </defs>
  <metadata
     id="metadata10080">
    <rdf:RDF>
      <cc:Work
         rdf:about="">
        <dc:format>image/svg+xml</dc:format>
        <dc:type
           rdf:resource="http://purl.org/dc/dcmitype/StillImage" />
        <dc:title />
      </cc:Work>
    </rdf:RDF>
  </metadata>
  <g
     id="layer1"
     transform="translate(0,-992.3622)">
    <rect
       height="656"
       id="background"
       style="fill:url(#BLANK);"
       width="866"
       x="-16"
       y="855.36218" />
  </g>
  <g
     id="layer2"
     transform="translate(0,-540)">
    <g
       id="g11020"
       transform="translate(-35,-139.36217)">
      <path
         d="M 137,278 A 17,17 0 1 1 103,278 17,17 0 1 1 137,278 Z"
         id="path11014"
         style="color:#000000;fill:#000000;fill-opacity:0.27522936;stroke:none;stroke-width:1.06985807;marker:none;visibility:visible;display:inline;overflow:visible;enable-background:accumulate"
         transform="translate(2,453.36217)" />
      <text
         id="text11016"
         style="font-size:14px;font-style:normal;font-variant:normal;font-weight:bold;font-stretch:normal;text-align:center;line-height:125%;letter-spacing:0px;word-spacing:0px;writing-mode:lr-tb;text-anchor:middle;fill:#ffffff;fill-opacity:1;stroke:none;font-family:Cantarell;-inkscape-font-specification:Cantarell Bold"
         x="122.29289"
         y="736.36218"
         xml:space="preserve"><tspan
           id="tspan11018"
           x="122.29289"
           y="736.36218">4</tspan></text>
    </g>
    <g
       id="g4890"
       style="display:inline"
       transform="matrix(2.6833333,0,0,2.6833333,-395.5101,-1072.8539)">
      <path
         d="m 528.04724,641.93933 209.13044,0 c 2.216,0 4,1.784 4,4 l 0,121.72671 -4,0 -209.13044,0 -4,0 0,-121.72671 C 524.04724,643.72333 525.83124,641.93933 528.04724,641.93933 Z"
         id="path5430"
         style="fill:#ffffff;fill-opacity:1;stroke:#000000;stroke-width:2;stroke-miterlimit:4;stroke-opacity:1"
         inkscape:connector-curvature="0" />
      <path
         d="m 524.59833,669.11946 c 212.46132,0 216.29809,0 216.29809,0"
         id="path5361"
         style="fill:none;stroke:#000000;stroke-width:1.01455009;stroke-linecap:butt;stroke-linejoin:miter;stroke-miterlimit:4;stroke-opacity:1;stroke-dasharray:none"
         inkscape:connector-curvature="0" />
      <g
         id="g5363"
         style="fill:#0c0000;fill-opacity:1"
         transform="matrix(0.74997808,0,0,0.74997808,726.64853,644.28885)">
        <g
           id="g5365"
           style="fill:#0c0000;fill-opacity:1;display:inline"
           transform="translate(-60,-518)" />
        <g
           id="g5367"
           style="fill:#0c0000;fill-opacity:1"
           transform="translate(-60,-518)" />
        <g
           id="g5369"
           style="fill:#0c0000;fill-opacity:1"
           transform="translate(-60,-518)" />
        <g
           id="g5371"
           style="fill:#0c0000;fill-opacity:1"
           transform="translate(-60,-518)">
          <g
             id="g5373"
             style="fill:#0c0000;fill-opacity:1;display:inline"
             transform="translate(19,-242)">
            <path
               d="m 45,764 1,0 c 0.01037,-1.2e-4 0.02079,-4.6e-4 0.03125,0 0.254951,0.0112 0.50987,0.12858 0.6875,0.3125 L 49,766.59375 51.3125,764.3125 C 51.578125,764.082 51.759172,764.007 52,764 l 1,0 0,1 c 0,0.28647 -0.03434,0.55065 -0.25,0.75 l -2.28125,2.28125 2.25,2.25 C 52.906938,770.46942 52.999992,770.7347 53,771 l 0,1 -1,0 c -0.265301,-10e-6 -0.530586,-0.0931 -0.71875,-0.28125 L 49,769.4375 46.71875,771.71875 C 46.530586,771.90694 46.26529,772 46,772 l -1,0 0,-1 c -3e-6,-0.26529 0.09306,-0.53058 0.28125,-0.71875 l 2.28125,-2.25 L 45.28125,765.75 C 45.070508,765.55537 44.97809,765.28075 45,765 L 45,764 Z"
               id="path5375"
               style="font-size:xx-small;font-style:normal;font-variant:normal;font-weight:normal;font-stretch:normal;text-indent:0;text-align:start;text-decoration:none;line-height:normal;letter-spacing:normal;word-spacing:normal;text-transform:none;direction:ltr;block-progression:tb;writing-mode:lr-tb;text-anchor:start;color:#bebebe;fill:#0c0000;fill-opacity:1;fill-rule:nonzero;stroke:none;stroke-width:1.78124988;marker:none;visibility:visible;display:inline;overflow:visible;enable-background:new;font-family:Andale Mono;-inkscape-font-specification:Andale Mono"
               inkscape:connector-curvature="0" />
          </g>
        </g>
        <g
           id="g5377"
           style="fill:#0c0000;fill-opacity:1"
           transform="translate(-60,-518)" />
        <g
           id="g5379"
           style="fill:#0c0000;fill-opacity:1"
           transform="translate(-60,-518)" />
        <g
           id="g5381"
           style="fill:#0c0000;fill-opacity:1"
           transform="translate(-60,-518)" />
      </g>
      <g
         id="g7362"
         style="display:inline"
         transform="matrix(0.74534162,0,0,0.74534162,514.10315,448.26854)">
        <rect
           height="16"
           id="rect7364"
           style="color:#bebebe;fill:none;stroke:none;stroke-width:1;marker:none;visibility:visible;display:inline;overflow:visible"
           width="16"
           x="20"
           y="276" />
        <rect
           height="2"
           id="rect13363"
           rx="0.38461545"
           ry="0.37878788"
           style="color:#000000;fill:#000000;fill-opacity:1;fill-rule:nonzero;stroke:none;stroke-width:1;marker:none;visibility:visible;display:inline;overflow:visible;enable-background:new"
           width="2.0000002"
           x="22.9998"
           y="279" />
        <rect
           height="2"
           id="rect13365"
           rx="0.38461545"
           ry="0.37878788"
           style="color:#000000;fill:#000000;fill-opacity:1;fill-rule:nonzero;stroke:none;stroke-width:1;marker:none;visibility:visible;display:inline;overflow:visible;enable-background:new"
           width="2.0000002"
           x="26.9998"
           y="279" />
        <rect
           height="2"
           id="rect13367"
           rx="0.38461545"
           ry="0.37878788"
           style="color:#000000;fill:#000000;fill-opacity:1;fill-rule:nonzero;stroke:none;stroke-width:1;marker:none;visibility:visible;display:inline;overflow:visible;enable-background:new"
           width="2.0000002"
           x="30.9998"
           y="279" />
        <rect
           height="2"
           id="rect13369"
           rx="0.38461545"
           ry="0.37878788"
           style="color:#000000;fill:#000000;fill-opacity:1;fill-rule:nonzero;stroke:none;stroke-width:1;marker:none;visibility:visible;display:inline;overflow:visible;enable-background:new"
           width="2.0000002"
           x="22.9998"
           y="283.01562" />
        <rect
           height="2"
           id="rect13371"
           rx="0.38461545"
           ry="0.37878788"
           style="color:#000000;fill:#000000;fill-opacity:1;fill-rule:nonzero;stroke:none;stroke-width:1;marker:none;visibility:visible;display:inline;overflow:visible;enable-background:new"
           width="2.0000002"
           x="26.9998"
           y="283.01562" />
        <rect
           height="2"
           id="rect13373"
           rx="0.38461545"
           ry="0.37878788"
           style="color:#000000;fill:#000000;fill-opacity:1;fill-rule:nonzero;stroke:none;stroke-width:1;marker:none;visibility:visible;display:inline;overflow:visible;enable-background:new"
           width="2.0000002"
           x="30.9998"
           y="283.01562" />
        <rect
           height="2"
           id="rect13375"
           rx="0.38461545"
           ry="0.37878788"
           style="color:#000000;fill:#000000;fill-opacity:1;fill-rule:nonzero;stroke:none;stroke-width:1;marker:none;visibility:visible;display:inline;overflow:visible;enable-background:new"
           width="2.0000002"
           x="22.9998"
           y="287" />
        <rect
           height="2"
           id="rect13377"
           rx="0.38461545"
           ry="0.37878788"
           style="color:#000000;fill:#000000;fill-opacity:1;fill-rule:nonzero;stroke:none;stroke-width:1;marker:none;visibility:visible;display:inline;overflow:visible;enable-background:new"
           width="2.0000002"
           x="26.9998"
           y="287" />
        <rect
           height="2"
           id="rect13379"
           rx="0.38461545"
           ry="0.37878788"
           style="color:#000000;fill:#000000;fill-opacity:1;fill-rule:nonzero;stroke:none;stroke-width:1;marker:none;visibility:visible;display:inline;overflow:visible;enable-background:new"
           width="2.0000002"
           x="30.9998"
           y="287" />
      </g>
      <rect
         height="85.315605"
         id="rect12010"
         rx="0.14333495"
         ry="0.13693438"
         style="color:#000000;fill:none;stroke:#000000;stroke-width:0.73409271;stroke-opacity:1;marker:none;visibility:visible;display:inline;overflow:visible;enable-background:accumulate"
         width="64.09938"
         x="528.26465"
         y="678.23242" />
      <text
         id="text12012"
         style="font-size:5.21739149px;font-style:normal;font-variant:normal;font-weight:bold;font-stretch:normal;text-align:start;line-height:125%;letter-spacing:0px;word-spacing:0px;writing-mode:lr-tb;text-anchor:start;fill:#000000;fill-opacity:1;stroke:none;font-family:Cantarell;-inkscape-font-specification:Cantarell Bold"
         x="615.09692"
         y="651.00146"
         xml:space="preserve"
         sodipodi:linespacing="125%"><tspan
           id="tspan12014"
           x="615.09692"
           y="651.00146">Online-Konten</tspan></text>
      <rect
         height="16.397516"
         id="rect17494"
         rx="3.4050679"
         ry="3.4050679"
         style="color:#000000;fill:none;stroke:#000000;stroke-width:0.7453416;stroke-linecap:square;stroke-linejoin:miter;stroke-miterlimit:4;stroke-opacity:1;stroke-dasharray:none;stroke-dashoffset:0;marker:none;visibility:visible;display:inline;overflow:visible;enable-background:accumulate"
         width="84.223602"
         x="618.82367"
         y="711.00146" />
      <text
         id="text17496"
         style="font-size:5.21739149px;font-style:normal;font-variant:normal;font-weight:normal;font-stretch:normal;text-align:start;line-height:125%;letter-spacing:0px;word-spacing:0px;writing-mode:lr-tb;text-anchor:start;fill:#000000;fill-opacity:1;stroke:none;font-family:Cantarell;-inkscape-font-specification:Cantarell"
         x="635.59381"
         y="721.0636"
         xml:space="preserve"
         sodipodi:linespacing="125%"><tspan
           id="tspan17498"
           x="635.59381"
           y="721.0636">Ein Online-Konto hinzufügen</tspan></text>
      <g
         id="default-pointer-c"
         style="display:inline"
         transform="matrix(1.0281734,0,0,1.0281734,648.32356,718.36693)">
        <path
           d="m 27.135224,2.8483222 0,16.4402338 3.712311,-3.623922 2.12132,4.331029 c 0.519598,1.171377 3.220861,0.229524 2.452777,-1.336875 l -2.099224,-4.496756 4.684582,0 L 27.135224,2.8483222 Z"
           id="path5567"
           style="opacity:0.6;color:#000000;fill:#000000;fill-opacity:1;fill-rule:nonzero;stroke:#000000;stroke-width:1;stroke-linecap:butt;stroke-linejoin:miter;stroke-miterlimit:10;stroke-opacity:1;stroke-dasharray:none;stroke-dashoffset:0;marker:none;visibility:visible;display:block;overflow:visible;filter:url(#filter5601);enable-background:accumulate"
           inkscape:connector-curvature="0" />
        <path
           d="m 26.604893,2.3179921 0,16.4402329 3.712311,-3.623922 2.12132,4.331029 c 0.519598,1.171377 3.220861,0.229524 2.452777,-1.336875 l -2.099224,-4.496756 4.684582,0 L 26.604893,2.3179921 Z"
           id="path5565"
           style="color:#000000;fill:url(#linearGradient17453);fill-opacity:1;fill-rule:nonzero;stroke:#ffffff;stroke-width:1;stroke-linecap:butt;stroke-linejoin:miter;stroke-miterlimit:10;stroke-opacity:1;stroke-dasharray:none;stroke-dashoffset:0;marker:none;visibility:visible;display:block;overflow:visible;enable-background:accumulate"
           inkscape:connector-curvature="0" />
        <path
           d="m 26.604893,2.3179921 0,16.4402329 3.712311,-3.623922 2.12132,4.331029 c 0.519598,1.171377 3.220861,0.229524 2.452777,-1.336875 l -2.099224,-4.496756 4.684582,0 L 26.604893,2.3179921 Z"
           id="path6242"
           style="color:#000000;fill:url(#linearGradient17455);fill-opacity:1;fill-rule:nonzero;stroke:#ffffff;stroke-width:1;stroke-linecap:butt;stroke-linejoin:miter;stroke-miterlimit:10;stroke-opacity:1;stroke-dasharray:none;stroke-dashoffset:0;marker:none;visibility:visible;display:block;overflow:visible;enable-background:accumulate"
           inkscape:connector-curvature="0" />
      </g>
      <rect
         height="10.062137"
         id="rect17500"
         rx="1.9144073"
         ry="1.914407"
         style="color:#000000;fill:none;stroke:#000000;stroke-width:0.74534172;stroke-linecap:square;stroke-linejoin:miter;stroke-miterlimit:4;stroke-opacity:1;stroke-dasharray:none;stroke-dashoffset:0;marker:none;visibility:visible;display:inline;overflow:visible;enable-background:accumulate"
         width="20.12421"
         x="530.12799"
         y="751.24988" />
      <path
         d="m 540.19011,751.52941 0,9.78261"
         id="path17502"
         style="color:#000000;fill:none;stroke:#000000;stroke-width:0.7453416;stroke-linecap:square;stroke-linejoin:miter;stroke-miterlimit:4;stroke-opacity:1;stroke-dasharray:none;stroke-dashoffset:0;marker:none;visibility:visible;display:inline;overflow:visible;enable-background:accumulate"
         inkscape:connector-curvature="0" />
      <g
         id="g31978"
         style="display:inline"
         transform="matrix(0.37267081,0,0,0.37267081,534.97271,650.62879)">
        <rect
           height="16"
           id="rect31980"
           style="color:#bebebe;fill:none;stroke:none;stroke-width:1;marker:none;visibility:visible;display:inline;overflow:visible"
           width="16"
           x="20"
           y="276" />
        <rect
           height="2.0002136"
           id="rect31984"
           style="color:#bebebe;fill:#2e3436;fill-opacity:1;stroke:none;stroke-width:1;marker:none;visibility:visible;display:inline;overflow:visible"
           width="9.9996014"
           x="23.000198"
           y="282.99979" />
      </g>
      <g
         id="g31988"
         style="display:inline"
         transform="matrix(0.37267081,0,0,0.37267081,524.9106,650.62879)">
        <rect
           height="16"
           id="rect31990"
           style="color:#bebebe;fill:none;stroke:none;stroke-width:1;marker:none;visibility:visible;display:inline;overflow:visible"
           width="16"
           x="20"
           y="276" />
        <path
           d="m -174,512 0,4 -4,0 0,2 4,0 0,4 2,0 0,-4 4,0 0,-2 -4,0 0,-4 L -174,512 Z"
           id="rect31992"
           style="color:#bebebe;fill:#2e3436;fill-opacity:1;stroke:none;stroke-width:1;marker:none;visibility:visible;display:inline;overflow:visible"
           transform="translate(201,-233)"
           inkscape:connector-curvature="0" />
      </g>
    </g>
    <rect
       height="315.99997"
       id="rect17558"
       style="color:#000000;fill:#ffffff;fill-opacity:1;fill-rule:nonzero;stroke:#000000;stroke-width:5.36666679;stroke-linecap:butt;stroke-linejoin:miter;stroke-miterlimit:4;stroke-opacity:1;stroke-dasharray:none;stroke-dashoffset:0;marker:none;visibility:visible;display:inline;overflow:visible;enable-background:accumulate"
       width="381"
       x="212"
       y="638" />
    <text
       id="text12012-1"
       style="font-size:14px;font-style:normal;font-variant:normal;font-weight:bold;font-stretch:normal;text-align:center;line-height:125%;letter-spacing:0px;word-spacing:0px;writing-mode:lr-tb;text-anchor:middle;fill:#000000;fill-opacity:1;stroke:none;display:inline;font-family:Cantarell;-inkscape-font-specification:Cantarell Bold"
       x="409.45731"
       y="662.83698"
       xml:space="preserve"
       sodipodi:linespacing="125%"><tspan
         id="tspan12014-2"
         x="409.45731"
         y="662.83698">Konto hinzufügen</tspan></text>
    <rect
       height="213.93021"
       id="rect12010-4"
       rx="0.38461548"
       ry="0.36744055"
       style="color:#000000;fill:none;stroke:#000000;stroke-width:1.96981525;stroke-opacity:1;marker:none;visibility:visible;display:inline;overflow:visible;enable-background:accumulate"
       width="363.19278"
       x="221.00003"
       y="680" />
    <g
       id="g17909"
       transform="translate(0,-37)">
      <rect
         height="30.684212"
         id="rect17494-2"
         rx="6.1369629"
         ry="6.1369629"
         style="color:#000000;fill:none;stroke:#000000;stroke-width:1.99999988;stroke-linecap:square;stroke-linejoin:miter;stroke-miterlimit:4;stroke-opacity:1;stroke-dasharray:none;stroke-dashoffset:0;marker:none;visibility:visible;display:inline;overflow:visible;enable-background:accumulate"
         width="96"
         x="486"
         y="944" />
      <text
         id="text17496-8"
         style="font-size:14px;font-style:normal;font-variant:normal;font-weight:normal;font-stretch:normal;text-align:center;line-height:125%;letter-spacing:0px;word-spacing:0px;writing-mode:lr-tb;text-anchor:middle;fill:#000000;fill-opacity:1;stroke:none;display:inline;font-family:Cantarell;-inkscape-font-specification:Cantarell"
         x="534.99988"
         y="964.00006"
         xml:space="preserve"
         sodipodi:linespacing="125%"><tspan
           id="tspan17498-4"
           x="534.99988"
           y="964.00006">Abbrechen</tspan></text>
    </g>
    <text
       id="text17640"
       style="font-size:14px;font-style:normal;font-variant:normal;font-weight:bold;font-stretch:normal;text-align:start;line-height:125%;letter-spacing:0px;word-spacing:0px;writing-mode:lr-tb;text-anchor:start;fill:#000000;fill-opacity:1;stroke:none;display:inline;font-family:Cantarell;-inkscape-font-specification:Cantarell Bold"
       x="274.45731"
       y="709.83698"
       xml:space="preserve"><tspan
         id="tspan17642"
         x="274.45731"
         y="709.83698">Google</tspan></text>
    <text
       id="text17893"
       style="font-size:14px;font-style:normal;font-variant:normal;font-weight:bold;font-stretch:normal;text-align:start;line-height:125%;letter-spacing:0px;word-spacing:0px;writing-mode:lr-tb;text-anchor:start;fill:#000000;fill-opacity:1;stroke:none;display:inline;font-family:Cantarell;-inkscape-font-specification:Cantarell Bold"
       x="274.45731"
       y="749.83698"
       xml:space="preserve"><tspan
         id="tspan17895"
         x="274.45731"
         y="749.83698">Facebook</tspan></text>
    <text
       id="text17897"
       style="font-size:14px;font-style:normal;font-variant:normal;font-weight:bold;font-stretch:normal;text-align:start;line-height:125%;letter-spacing:0px;word-spacing:0px;writing-mode:lr-tb;text-anchor:start;fill:#000000;fill-opacity:1;stroke:none;display:inline;font-family:Cantarell;-inkscape-font-specification:Cantarell Bold"
       x="274.45731"
       y="789.83698"
       xml:space="preserve"><tspan
         id="tspan17899"
         x="274.45731"
         y="789.83698">Windows Live</tspan></text>
    <text
       id="text17901"
       style="font-size:14px;font-style:normal;font-variant:normal;font-weight:bold;font-stretch:normal;text-align:start;line-height:125%;letter-spacing:0px;word-spacing:0px;writing-mode:lr-tb;text-anchor:start;fill:#000000;fill-opacity:1;stroke:none;display:inline;font-family:Cantarell;-inkscape-font-specification:Cantarell Bold"
       x="274.45731"
       y="829.83698"
       xml:space="preserve"><tspan
         id="tspan17903"
         x="274.45731"
         y="829.83698">Microsoft Exchange</tspan></text>
    <text
       id="text17905"
       style="font-size:14px;font-style:normal;font-variant:normal;font-weight:bold;font-stretch:normal;text-align:start;line-height:125%;letter-spacing:0px;word-spacing:0px;writing-mode:lr-tb;text-anchor:start;fill:#000000;fill-opacity:1;stroke:none;display:inline;font-family:Cantarell;-inkscape-font-specification:Cantarell Bold"
       x="274.45731"
       y="869.83698"
       xml:space="preserve"><tspan
         id="tspan17907"
         x="274.45731"
         y="869.83698">Enterprise Login (Kerberos)</tspan></text>
    <g
       id="g3922"
       style="display:inline"
       transform="matrix(2,0,0,2,191,373)">
      <rect
         height="16"
         id="rect2941"
         style="color:#bebebe;fill:none;stroke:none;stroke-width:1;marker:none;visibility:visible;display:inline;overflow:visible"
         transform="matrix(0,-1,1,0,0,0)"
         width="16"
         x="-194"
         y="20" />
      <path
         d="M 22.116732,178 C 20.946094,178 20,178.94979 20,180.125 l 0,11.75 c 0,1.17521 0.946094,2.125 2.116732,2.125 l 6.910506,0 0,-6 -0.99611,0 0,-2 0.99611,0 0,-1.0625 c 0,-1.84445 1.374066,-2.88912 3.175096,-2.9375 l 1.77432,0 0,2 -1.089494,0 c -0.625856,0 -0.902724,0.22291 -0.902724,0.90625 l 0,1.09375 1.712062,0 -0.217898,2 -1.494164,0 0,6 1.898832,0 C 35.053906,194 36,193.05021 36,191.875 l 0,-11.75 C 36,178.94979 35.053906,178 33.883268,178 Z"
         id="rect14063"
         style="color:#000000;fill:#babdb6;fill-opacity:1;fill-rule:nonzero;stroke:none;stroke-width:0.5;marker:none;visibility:visible;display:inline;overflow:visible;enable-background:new"
         inkscape:connector-curvature="0" />
    </g>
    <path
       d="m 240.06244,689.01715 -3.56249,-0.016 c -2.51115,1.30826 -2.88681,4.57261 -2.06249,7.56248 1.08953,3.95154 3.26699,6.72334 6.18748,5.81248 4.0738,-1.27088 4.19302,-4.59783 2.93749,-8.49998 C 242.89839,691.8123 241.66675,690.14943 240.06244,689.01677 z m 9.93747,6.17186 c 0,1.75946 -0.71594,3.26127 -1.5,4.43749 l 0,0.0624 -0.1874,0.125 c 0,0 -0.50952,0.59837 -1.12499,1.18749 -0.61462,0.58922 -1.5625,1.375 -1.5625,1.375 -0.7713,0.57968 -1.1875,1.34601 -1.1875,2.18749 0,0.84434 0.53654,1.6075 1.3125,2.18749 0,0 1.5736,0.96414 2.43749,1.6875 0.86354,0.7238 1.875,1.68749 1.875,1.68749 1.16965,1.09974 1.93749,2.8523 1.93749,4.81249 0,1.68819 -0.5353,3.21907 -1.43749,4.31249 l -1.375,1.74999 8.56247,0 c 2.34128,0 4.24999,-1.89957 4.24999,-4.24999 l 0,-23.49992 c 0,-2.35042 -1.90871,-4.24999 -4.24999,-4.24999 -1.14773,-0.014 -3.64297,0.004 -3.64297,0.004 l -0.031,1.97129 -5.13194,0.57558 C 249.69497,692.8564 249.98069,694.15803 250.00003,695.18951 z m -19.99994,4.87499 0,11.24996 c 3.47287,-2.32521 9.68747,-2.37499 9.68747,-2.37499 0,0 0.027,-0.0372 0,-0.0624 -2.49155,-1.91534 -1.4375,-4.12509 -1.4375,-4.12509 C 234.39754,705.07968 232.63656,703.64176 229.99997,700.064 z m 10.12497,11.06246 c -3.46111,0.1948 -7.91464,1.6274 -7.99998,5.06249 0,2.05473 1.33766,3.91718 3.24999,4.74998 0,0 0.0688,0.0442 0.125,0.0624 l 0.0624,0 9.06247,0 c 0,0 0.0212,-0.0894 0.0624,-0.125 4.90245,-4.33881 1.20038,-6.85438 -2.99999,-9.68747 -0.0758,-0.0504 -0.1874,-0.0624 -0.1874,-0.0624 C 241.06184,711.10566 240.61928,711.09866 240.12484,711.12646 Z"
       id="path14750"
       style="color:#000000;fill:#babdb6;fill-opacity:1;fill-rule:nonzero;stroke:none;stroke-width:0.5;marker:none;visibility:visible;display:inline;overflow:visible;enable-background:new"
       inkscape:connector-curvature="0" />
  </g>
</svg>
