<?xml version="1.0" encoding="UTF-8" standalone="no"?>
<!-- Created with Inkscape (http://www.inkscape.org/) -->

<svg
   xmlns:osb="http://www.openswatchbook.org/uri/2009/osb"
   xmlns:dc="http://purl.org/dc/elements/1.1/"
   xmlns:cc="http://creativecommons.org/ns#"
   xmlns:rdf="http://www.w3.org/1999/02/22-rdf-syntax-ns#"
   xmlns:svg="http://www.w3.org/2000/svg"
   xmlns="http://www.w3.org/2000/svg"
   xmlns:xlink="http://www.w3.org/1999/xlink"
   xmlns:sodipodi="http://sodipodi.sourceforge.net/DTD/sodipodi-0.dtd"
   xmlns:inkscape="http://www.inkscape.org/namespaces/inkscape"
   width="810"
   height="400"
   id="svg10075"
   version="1.1"
   inkscape:version="0.48.3.1 r9886"
   sodipodi:docname="goa1.svg">
  <defs
     id="defs10077">
    <linearGradient
       osb:paint="gradient"
       id="RHEL7">
      <stop
         id="stop13323"
         offset="0"
         style="stop-color:#a3dbe8;stop-opacity:1;" />
      <stop
         id="stop13325"
         offset="1"
         style="stop-color:#a3dbe8;stop-opacity:1;" />
    </linearGradient>
    <linearGradient
       id="GNOME"
       osb:paint="gradient">
      <stop
         style="stop-color:#eeedec;stop-opacity:1;"
         offset="0"
         id="stop11074" />
      <stop
         style="stop-color:#eeedec;stop-opacity:1"
         offset="1"
         id="stop11076" />
    </linearGradient>
    <linearGradient
       id="BLANK"
       osb:paint="gradient">
      <stop
         style="stop-color:#eeedec;stop-opacity:0;"
         offset="0"
         id="stop11074" />
      <stop
         style="stop-color:#eeedec;stop-opacity:0"
         offset="1"
         id="stop11076" />
    </linearGradient>
  </defs>
  <sodipodi:namedview
     id="base"
     pagecolor="#eeeeec"
     bordercolor="#666666"
     borderopacity="1.0"
     inkscape:pageopacity="1"
     inkscape:pageshadow="2"
     inkscape:zoom="1"
     inkscape:cx="369.93497"
     inkscape:cy="103.93705"
     inkscape:document-units="px"
     inkscape:current-layer="layer2"
     showgrid="false"
     borderlayer="true"
     inkscape:showpageshadow="false"
     inkscape:window-width="1484"
     inkscape:window-height="1249"
     inkscape:window-x="2652"
     inkscape:window-y="103"
     inkscape:window-maximized="0" />
  <metadata
     id="metadata10080">
    <rdf:RDF>
      <cc:Work
         rdf:about="">
        <dc:format>image/svg+xml</dc:format>
        <dc:type
           rdf:resource="http://purl.org/dc/dcmitype/StillImage" />
        <dc:title />
      </cc:Work>
    </rdf:RDF>
  </metadata>
  <g
     inkscape:label="bg"
     inkscape:groupmode="layer"
     id="layer1"
     transform="translate(0,-652.36217)"
     sodipodi:insensitive="true">
    <rect
       style="fill:url(#GNOME)"
       id="background"
       width="838"
       height="639"
       x="-21"
       y="428.36218"
       inkscape:label="background" />
  </g>
  <g
     inkscape:groupmode="layer"
     id="layer2"
     inkscape:label="fg"
     transform="translate(0,-200)">
    <g
       id="g5895"
       transform="matrix(1.6596824,0,0,1.5988696,-650.10583,393.19119)">
      <g
         transform="matrix(0.29958781,0,0,0.29170899,321.78845,-7.042621)"
         id="g5467">
        <path
           inkscape:connector-curvature="0"
           style="color:#000000;fill:#ffffff;stroke:#000000;stroke-width:12.45934677;stroke-linejoin:round;stroke-miterlimit:4;stroke-dasharray:none;marker:none;visibility:visible;display:inline;overflow:visible;enable-background:accumulate"
           d="m 464.46875,123.03125 0,0.125 c -0.44393,-0.0201 -0.89409,-0.0194 -1.3125,-0.0312 -0.0201,-5e-4 -0.0415,-6e-5 -0.0625,0 l 0,-0.0312 c -35.47303,0 -52.12084,18.17885 -58.53125,35.53125 -4.16563,11.27597 -2.56542,24.58143 -0.90625,38.0625 0.61719,5.01479 1.38934,10.3782 2.25,15.90625 0.0523,1.53427 0.0953,3.02176 0.0625,4.25 -0.48198,18.0321 -6.73844,40.14561 -6.375,53.75 0.67291,25.18859 14.15792,41.81557 32.09375,50.3125 0.28216,0.13367 0.55942,0.27661 0.84375,0.40625 20.53214,9.97483 44.84145,10.69846 64.53125,-2 17.00609,-9.04566 29.375,-25.39691 29.375,-48.71875 0,-13.60924 -5.89302,-35.7179 -6.375,-53.75 -0.19564,-7.31935 1.4375,-21.90625 1.4375,-21.90625 1.53635,-7.2428 2.64168,-15.026 2.34375,-22.59375 -0.004,-0.10339 0.005,-0.20919 0,-0.3125 -0.11179,-3.85613 -0.64084,-7.56265 -1.6875,-11.03125 -0.11795,-0.39089 -0.24268,-0.77221 -0.375,-1.15625 -0.10094,-0.32527 -0.172,-0.64602 -0.28125,-0.96875 -0.60655,-1.79171 -1.42373,-3.60933 -2.375,-5.40625 -0.0677,-0.13829 -0.15051,-0.26913 -0.21875,-0.40625 -11.84101,-23.79288 -32.00817,-30.03125 -54.4375,-30.03125 z"
           id="use3906-7-3" />
      </g>
      <path
         sodipodi:nodetypes="ccsccscsc"
         inkscape:connector-curvature="0"
         id="path3896-9"
         d="m 471.25496,79.200587 5.30654,-28.587308 c 0.64849,-3.57802 1.26981,-7.661014 0.0259,-10.803791 -3.14471,-7.945086 -9.05873,-9.963605 -15.689,-9.963605 l -0.37971,0.0146 c -9.79602,0 -14.39338,5.126277 -16.16364,10.019502 l -3e-5,1e-6 c -1.15035,3.179726 -0.70845,6.93175 -0.25026,10.733293 0.74423,6.174786 2.22673,14.066104 3.59775,20.732961"
         style="color:#000000;fill:none;stroke:#000000;stroke-width:0.30693826;stroke-miterlimit:4;stroke-dasharray:none;marker:none;visibility:visible;display:inline;overflow:visible;enable-background:accumulate" />
      <path
         sodipodi:nodetypes="cc"
         inkscape:connector-curvature="0"
         id="path5509"
         d="m 460.5,28.862183 0,23"
         style="fill:none;stroke:#000000;stroke-width:0.30693826;stroke-linecap:butt;stroke-linejoin:miter;stroke-miterlimit:4;stroke-opacity:1;stroke-dasharray:none" />
      <rect
         ry="1.0234503"
         rx="0.90486509"
         y="35.253452"
         x="458.65408"
         height="11.488176"
         width="3.691813"
         id="rect5511"
         style="color:#000000;fill:#ffffff;stroke:#000000;stroke-width:0.6138764;stroke-linecap:square;stroke-linejoin:round;stroke-miterlimit:4;stroke-opacity:1;stroke-dasharray:none;stroke-dashoffset:0;marker:none;visibility:visible;display:inline;overflow:visible;enable-background:accumulate" />
      <path
         sodipodi:nodetypes="ccc"
         inkscape:connector-curvature="0"
         d="m 444,54.362183 c 5.14462,-1.307176 9.93443,-2.504355 16.4928,-2.499994 6.55838,-0.0044 11.34819,1.192829 16.49281,2.500005"
         style="fill:none;stroke:#000000;stroke-width:0.30693826;stroke-linecap:butt;stroke-linejoin:miter;stroke-miterlimit:4;stroke-opacity:1;stroke-dasharray:none"
         id="path5509-2-7" />
    </g>
    <g
       transform="matrix(-1.4230531,0,0,1.4230531,561.13412,-70.52602)"
       id="g3938">
      <path
         sodipodi:nodetypes="ccc"
         inkscape:connector-curvature="0"
         id="rect3201"
         d="m 146.93753,371.19797 0,-129.07529 143.35232,0"
         style="color:#000000;fill:#000000;fill-opacity:0;fill-rule:nonzero;stroke:#000000;stroke-width:2.10814333;stroke-linecap:round;stroke-linejoin:miter;stroke-miterlimit:4;stroke-opacity:1;stroke-dashoffset:0;marker:none;visibility:visible;display:inline;overflow:visible;enable-background:accumulate" />
      <path
         sodipodi:nodetypes="ccc"
         inkscape:connector-curvature="0"
         d="m 148.37105,270.089 c 0,-3.56432 2.88813,-6.45377 6.45085,-6.45377 l 156.25403,0"
         style="fill:none;stroke:#000000;stroke-width:0.70271444px;stroke-linecap:round;stroke-linejoin:miter;stroke-opacity:1"
         id="path3995" />
      <text
         xml:space="preserve"
         style="font-size:14px;font-style:normal;font-variant:normal;font-weight:bold;font-stretch:normal;text-align:end;line-height:125%;letter-spacing:0px;word-spacing:0px;writing-mode:lr-tb;text-anchor:end;fill:#000000;fill-opacity:1;stroke:none;font-family:Cantarell;-inkscape-font-specification:Cantarell Bold"
         x="-154.04268"
         y="257.00879"
         id="username"
         sodipodi:linespacing="125%"
         transform="scale(-0.99977456,1.0002255)"
         inkscape:label="#text4716-9"><tspan
           id="tspan3993"
           sodipodi:role="line"
           x="-154.04268"
           y="257.00879"
           style="font-size:14px;font-style:normal;font-variant:normal;font-weight:bold;font-stretch:normal;text-align:end;line-height:125%;writing-mode:lr-tb;text-anchor:end;font-family:Cantarell;-inkscape-font-specification:Cantarell Bold">John Doe</tspan></text>
      <path
         sodipodi:nodetypes="ccc"
         inkscape:connector-curvature="0"
         d="m 146.93753,270.089 c 0,-3.56432 2.88813,-6.45377 6.45085,-6.45377 l 82.9074,0"
         style="fill:none;stroke:#000000;stroke-width:2.10814333;stroke-linecap:round;stroke-linejoin:miter;stroke-miterlimit:4;stroke-opacity:1;stroke-dasharray:none"
         id="path3995-8" />
      <g
         transform="matrix(-1.4335232,0,0,1.4341698,208.82881,250.97122)"
         inkscape:label="#g5607"
         id="default-pointer-c-1"
         style="display:inline">
        <path
           style="color:#000000;fill:url(#linearGradient4726-2-9);fill-opacity:1;fill-rule:nonzero;stroke:#ffffff;stroke-width:0.49009043;stroke-linecap:butt;stroke-linejoin:miter;stroke-miterlimit:10;stroke-opacity:1;stroke-dasharray:none;stroke-dashoffset:0;marker:none;visibility:visible;display:block;overflow:visible;enable-background:accumulate"
           d="m 26.604893,2.3179921 0,16.4402329 3.712311,-3.623922 2.12132,4.331029 c 0.519598,1.171377 3.220861,0.229524 2.452777,-1.336875 l -2.099224,-4.496756 4.684582,0 L 26.604893,2.3179921 z"
           id="path5565-2"
           sodipodi:nodetypes="cccccccc"
           inkscape:connector-curvature="0" />
        <path
           sodipodi:nodetypes="cccccccc"
           id="path6242-4"
           d="m 26.604893,2.3179921 0,16.4402329 3.712311,-3.623922 2.12132,4.331029 c 0.519598,1.171377 3.220861,0.229524 2.452777,-1.336875 l -2.099224,-4.496756 4.684582,0 L 26.604893,2.3179921 z"
           style="color:#000000;fill:#000000;fill-opacity:1;fill-rule:nonzero;stroke:#ffffff;stroke-width:0.49009043;stroke-linecap:butt;stroke-linejoin:miter;stroke-miterlimit:10;stroke-opacity:1;stroke-dasharray:none;stroke-dashoffset:0;marker:none;visibility:visible;display:block;overflow:visible;enable-background:accumulate"
           inkscape:connector-curvature="0" />
      </g>
      <path
         sodipodi:nodetypes="ccccccccccc"
         inkscape:connector-curvature="0"
         id="rect12572-5"
         d="m 251.22895,340.05538 -17.67947,-18.16056 m -21.57129,-22.15829 -4.48672,-4.60881 7.09558,-7.09879 -26.35501,-2.02823 2.02732,26.3669 7.09558,-7.09878 10.99783,11.00279 m 10.93061,10.93554 33.27093,33.28595"
         style="color:#000000;fill:none;stroke:#000000;stroke-width:0.70271444;stroke-linecap:square;stroke-linejoin:round;stroke-miterlimit:4;stroke-opacity:1;stroke-dashoffset:0.95;marker:none;visibility:visible;display:inline;overflow:visible;enable-background:accumulate" />
      <g
         transform="matrix(-1.4335232,0,0,1.4341698,269.48337,290.45712)"
         inkscape:label="#g5607"
         id="default-pointer-c-1-2"
         style="display:inline">
        <path
           style="color:#000000;fill:url(#linearGradient4726-2-4-0);fill-opacity:1;fill-rule:nonzero;stroke:#ffffff;stroke-width:0.49009043;stroke-linecap:butt;stroke-linejoin:miter;stroke-miterlimit:10;stroke-opacity:1;stroke-dasharray:none;stroke-dashoffset:0;marker:none;visibility:visible;display:block;overflow:visible;enable-background:accumulate"
           d="m 26.604893,2.3179921 0,16.4402329 3.712311,-3.623922 2.12132,4.331029 c 0.519598,1.171377 3.220861,0.229524 2.452777,-1.336875 l -2.099224,-4.496756 4.684582,0 L 26.604893,2.3179921 z"
           id="path5565-2-4"
           sodipodi:nodetypes="cccccccc"
           inkscape:connector-curvature="0" />
        <path
           sodipodi:nodetypes="cccccccc"
           id="path6242-4-9"
           d="m 26.604893,2.3179921 0,16.4402329 3.712311,-3.623922 2.12132,4.331029 c 0.519598,1.171377 3.220861,0.229524 2.452777,-1.336875 l -2.099224,-4.496756 4.684582,0 L 26.604893,2.3179921 z"
           style="color:#000000;fill:#ffffff;fill-opacity:1;fill-rule:nonzero;stroke:#000000;stroke-width:0.49009043;stroke-linecap:butt;stroke-linejoin:miter;stroke-miterlimit:10;stroke-opacity:1;stroke-dasharray:0.98018089, 0.49009044;stroke-dashoffset:0;marker:none;visibility:visible;display:block;overflow:visible;enable-background:accumulate"
           inkscape:connector-curvature="0" />
      </g>
      <g
         transform="matrix(-1.4335232,0,0,1.4341698,311.05554,329.17971)"
         inkscape:label="#g5607"
         id="default-pointer-c-1-2-5"
         style="display:inline">
        <path
           style="color:#000000;fill:url(#linearGradient4726-2-4-7-0);fill-opacity:1;fill-rule:nonzero;stroke:#ffffff;stroke-width:0.49009043;stroke-linecap:butt;stroke-linejoin:miter;stroke-miterlimit:10;stroke-opacity:1;stroke-dasharray:none;stroke-dashoffset:0;marker:none;visibility:visible;display:block;overflow:visible;enable-background:accumulate"
           d="m 26.604893,2.3179921 0,16.4402329 3.712311,-3.623922 2.12132,4.331029 c 0.519598,1.171377 3.220861,0.229524 2.452777,-1.336875 l -2.099224,-4.496756 4.684582,0 L 26.604893,2.3179921 z"
           id="path5565-2-4-9"
           sodipodi:nodetypes="cccccccc"
           inkscape:connector-curvature="0" />
        <path
           sodipodi:nodetypes="cccccccc"
           id="path6242-4-9-7"
           d="m 26.604893,2.3179921 0,16.4402329 3.712311,-3.623922 2.12132,4.331029 c 0.519598,1.171377 3.220861,0.229524 2.452777,-1.336875 l -2.099224,-4.496756 4.684582,0 L 26.604893,2.3179921 z"
           style="color:#000000;fill:#ffffff;fill-opacity:1;fill-rule:nonzero;stroke:#000000;stroke-width:0.49009043;stroke-linecap:butt;stroke-linejoin:miter;stroke-miterlimit:10;stroke-opacity:1;stroke-dasharray:0.98018089, 0.49009044;stroke-dashoffset:0;marker:none;visibility:visible;display:block;overflow:visible;enable-background:accumulate"
           inkscape:connector-curvature="0" />
      </g>
    </g>
    <g
       id="g11020"
       transform="translate(-62,-448.36217)">
      <path
         transform="translate(2,453.36217)"
         d="m 137,278 c 0,9.38884 -7.61116,17 -17,17 -9.38884,0 -17,-7.61116 -17,-17 0,-9.38884 7.61116,-17 17,-17 9.38884,0 17,7.61116 17,17 z"
         sodipodi:ry="17"
         sodipodi:rx="17"
         sodipodi:cy="278"
         sodipodi:cx="120"
         id="path11014"
         style="color:#000000;fill:#000000;fill-opacity:0.27522936;stroke:none;stroke-width:1.06985807;marker:none;visibility:visible;display:inline;overflow:visible;enable-background:accumulate"
         sodipodi:type="arc" />
      <text
         sodipodi:linespacing="125%"
         id="text11016"
         y="736.36218"
         x="122.29289"
         style="font-size:14px;font-style:normal;font-variant:normal;font-weight:bold;font-stretch:normal;text-align:center;line-height:125%;letter-spacing:0px;word-spacing:0px;writing-mode:lr-tb;text-anchor:middle;fill:#ffffff;fill-opacity:1;stroke:none;font-family:Cantarell;-inkscape-font-specification:Cantarell Bold"
         xml:space="preserve"><tspan
           y="736.36218"
           x="122.29289"
           id="tspan11018"
           sodipodi:role="line">1</tspan></text>
    </g>
    <g
       transform="translate(346,-448.36217)"
       id="g6104">
      <path
         sodipodi:type="arc"
         style="color:#000000;fill:#000000;fill-opacity:0.27522936;stroke:none;stroke-width:1.06985807;marker:none;visibility:visible;display:inline;overflow:visible;enable-background:accumulate"
         id="path6106"
         sodipodi:cx="120"
         sodipodi:cy="278"
         sodipodi:rx="17"
         sodipodi:ry="17"
         d="m 137,278 c 0,9.38884 -7.61116,17 -17,17 -9.38884,0 -17,-7.61116 -17,-17 0,-9.38884 7.61116,-17 17,-17 9.38884,0 17,7.61116 17,17 z"
         transform="translate(2,453.36217)" />
      <text
         xml:space="preserve"
         style="font-size:14px;font-style:normal;font-variant:normal;font-weight:bold;font-stretch:normal;text-align:center;line-height:125%;letter-spacing:0px;word-spacing:0px;writing-mode:lr-tb;text-anchor:middle;fill:#ffffff;fill-opacity:1;stroke:none;font-family:Cantarell;-inkscape-font-specification:Cantarell Bold"
         x="122.29289"
         y="736.36218"
         id="text6108"
         sodipodi:linespacing="125%"><tspan
           sodipodi:role="line"
           id="tspan6110"
           x="122.29289"
           y="736.36218">2</tspan></text>
    </g>
    <g
       id="g6112"
       transform="matrix(-1.4230531,0,0,1.4230531,962.7778,-70.52602)">
      <path
         style="color:#000000;fill:#000000;fill-opacity:0;fill-rule:nonzero;stroke:#000000;stroke-width:2.10814333;stroke-linecap:round;stroke-linejoin:miter;stroke-miterlimit:4;stroke-opacity:1;stroke-dashoffset:0;marker:none;visibility:visible;display:inline;overflow:visible;enable-background:accumulate"
         d="m 146.93753,371.19797 0,-129.07529 143.35232,0"
         id="path6114"
         inkscape:connector-curvature="0"
         sodipodi:nodetypes="ccc" />
      <path
         id="path6116"
         style="fill:none;stroke:#000000;stroke-width:0.70271444px;stroke-linecap:round;stroke-linejoin:miter;stroke-opacity:1"
         d="m 148.37105,270.089 c 0,-3.56432 2.88813,-6.45377 6.45085,-6.45377 l 156.25403,0"
         inkscape:connector-curvature="0"
         sodipodi:nodetypes="ccc" />
      <text
         transform="scale(-0.99977456,1.0002255)"
         sodipodi:linespacing="125%"
         id="text6118"
         y="257.00879"
         x="-154.04268"
         style="font-size:14px;font-style:normal;font-variant:normal;font-weight:bold;font-stretch:normal;text-align:end;line-height:125%;letter-spacing:0px;word-spacing:0px;writing-mode:lr-tb;text-anchor:end;fill:#000000;fill-opacity:1;stroke:none;font-family:Cantarell;-inkscape-font-specification:Cantarell Bold"
         xml:space="preserve"><tspan
           style="font-size:14px;font-style:normal;font-variant:normal;font-weight:bold;font-stretch:normal;text-align:end;line-height:125%;writing-mode:lr-tb;text-anchor:end;font-family:Cantarell;-inkscape-font-specification:Cantarell Bold"
           y="257.00879"
           x="-154.04268"
           sodipodi:role="line"
           id="tspan6120">John Doe</tspan></text>
      <path
         id="path6122"
         style="fill:none;stroke:#000000;stroke-width:2.10814333;stroke-linecap:round;stroke-linejoin:miter;stroke-miterlimit:4;stroke-opacity:1;stroke-dasharray:none"
         d="m 146.93753,270.089 c 0,-3.56432 2.88813,-6.45377 6.45085,-6.45377 l 82.9074,0"
         inkscape:connector-curvature="0"
         sodipodi:nodetypes="ccc" />
      <g
         style="display:inline"
         id="g6124"
         inkscape:label="#g5607"
         transform="matrix(-1.4335232,0,0,1.4341698,-39.17119,345.97122)" />
      <path
         style="color:#000000;fill:#000000;fill-opacity:1;stroke:none;stroke-width:1.06985807;marker:none;visibility:visible;display:inline;overflow:visible;enable-background:accumulate"
         d="m 182.75,268.6361 8.09375,8.09375 103.34375,0 c 3.90684,0 7.0625,3.15566 7.0625,7.0625 l 0,128.875 c 0,3.90684 -3.15566,7.0625 -7.0625,7.0625 l -128.875,0 c -3.90684,0 -7.0625,-3.15566 -7.0625,-7.0625 l 0,-128.875 c 0,-3.90684 3.15566,-7.0625 7.0625,-7.0625 l 9.34375,0 8.09375,-8.09375 z"
         id="rect6144"
         inkscape:connector-curvature="0" />
      <rect
         style="color:#000000;fill:#555753;fill-opacity:1;fill-rule:nonzero;stroke:none;stroke-width:1.06985807;marker:none;visibility:visible;display:inline;overflow:visible;enable-background:accumulate"
         id="rect6919"
         width="143"
         height="23"
         x="-301.25"
         y="333.72986"
         transform="scale(-1,1)" />
      <path
         inkscape:connector-curvature="0"
         style="color:#000000;fill:#000000;fill-opacity:1;fill-rule:nonzero;stroke:#ffffff;stroke-width:0.70271444;stroke-linecap:butt;stroke-linejoin:miter;stroke-miterlimit:10;stroke-opacity:1;stroke-dasharray:none;stroke-dashoffset:0;marker:none;visibility:visible;display:block;overflow:visible;enable-background:accumulate"
         d="m 182.04246,343.05765 0,23.57809 -5.32168,-5.19732 -3.04096,6.21143 c -0.74485,1.67996 -4.61718,0.32918 -3.51611,-1.9173 l 3.00928,-6.44912 -6.71545,0 15.58492,-16.22578 z"
         id="path6128"
         sodipodi:nodetypes="cccccccc" />
      <text
         xml:space="preserve"
         style="font-size:12px;font-style:normal;font-variant:normal;font-weight:normal;font-stretch:normal;text-align:start;line-height:125%;letter-spacing:0px;word-spacing:0px;writing-mode:lr-tb;text-anchor:start;fill:#ffffff;fill-opacity:1;stroke:none;font-family:Cantarell;-inkscape-font-specification:Cantarell"
         x="-293.25"
         y="348.72986"
         id="text6939"
         sodipodi:linespacing="125%"
         transform="scale(-1,1)"><tspan
           sodipodi:role="line"
           id="tspan6941"
           x="-293.25"
           y="348.72986">System Settings</tspan></text>
    </g>
  </g>
</svg>
