<?xml version="1.0" encoding="UTF-8" standalone="no"?>
<!-- Created with Inkscape (http://www.inkscape.org/) -->

<svg
   xmlns:osb="http://www.openswatchbook.org/uri/2009/osb"
   xmlns:dc="http://purl.org/dc/elements/1.1/"
   xmlns:cc="http://creativecommons.org/ns#"
   xmlns:rdf="http://www.w3.org/1999/02/22-rdf-syntax-ns#"
   xmlns:svg="http://www.w3.org/2000/svg"
   xmlns="http://www.w3.org/2000/svg"
   xmlns:xlink="http://www.w3.org/1999/xlink"
   xmlns:sodipodi="http://sodipodi.sourceforge.net/DTD/sodipodi-0.dtd"
   xmlns:inkscape="http://www.inkscape.org/namespaces/inkscape"
   width="840"
   height="500"
   id="svg10075"
   version="1.1"
   inkscape:version="0.48.3.1 r9886"
   sodipodi:docname="goa3.svg">
  <defs
     id="defs10077">
    <linearGradient
       osb:paint="gradient"
       id="RHEL7">
      <stop
         id="stop13323"
         offset="0"
         style="stop-color:#a3dbe8;stop-opacity:1;" />
      <stop
         id="stop13325"
         offset="1"
         style="stop-color:#a3dbe8;stop-opacity:1;" />
    </linearGradient>
    <linearGradient
       id="GNOME"
       osb:paint="gradient">
      <stop
         style="stop-color:#eeedec;stop-opacity:1;"
         offset="0"
         id="stop11074" />
      <stop
         style="stop-color:#eeedec;stop-opacity:1"
         offset="1"
         id="stop11076" />
    </linearGradient>
    <linearGradient
       id="BLANK"
       osb:paint="gradient">
      <stop
         style="stop-color:#eeedec;stop-opacity:0;"
         offset="0"
         id="stop7012" />
      <stop
         style="stop-color:#eeedec;stop-opacity:0"
         offset="1"
         id="stop7014" />
    </linearGradient>
    <linearGradient
       inkscape:collect="always"
       xlink:href="#GNOME"
       id="linearGradient7064"
       gradientTransform="matrix(1.1834379,0,0,0.896461,5.7016703,415.60382)"
       x1="-18.33782"
       y1="490.54935"
       x2="713.42853"
       y2="490.54935"
       gradientUnits="userSpaceOnUse" />
    <filter
       color-interpolation-filters="sRGB"
       inkscape:collect="always"
       x="-0.10291173"
       width="1.2058235"
       y="-0.065432459"
       height="1.1308649"
       id="filter5601">
      <feGaussianBlur
         inkscape:collect="always"
         stdDeviation="0.610872"
         id="feGaussianBlur5603" />
    </filter>
    <linearGradient
       inkscape:collect="always"
       xlink:href="#linearGradient5716"
       id="linearGradient5885"
       x1="29.089951"
       y1="11.772627"
       x2="33.971455"
       y2="9.7093649"
       gradientUnits="userSpaceOnUse" />
    <linearGradient
       id="linearGradient5716">
      <stop
         style="stop-color:#000000;stop-opacity:1;"
         offset="0"
         id="stop5718" />
      <stop
         style="stop-color:#484848;stop-opacity:1;"
         offset="1"
         id="stop5720" />
    </linearGradient>
    <linearGradient
       inkscape:collect="always"
       xlink:href="#linearGradient5716"
       id="linearGradient17441"
       x1="29.089951"
       y1="11.772627"
       x2="33.971455"
       y2="9.7093649"
       gradientUnits="userSpaceOnUse" />
    <linearGradient
       id="linearGradient17443">
      <stop
         style="stop-color:#000000;stop-opacity:1;"
         offset="0"
         id="stop17445" />
      <stop
         style="stop-color:#484848;stop-opacity:1;"
         offset="1"
         id="stop17447" />
    </linearGradient>
    <linearGradient
       y2="9.7093649"
       x2="33.971455"
       y1="11.772627"
       x1="29.089951"
       gradientUnits="userSpaceOnUse"
       id="linearGradient17453"
       xlink:href="#linearGradient5716"
       inkscape:collect="always" />
    <linearGradient
       y2="9.7093649"
       x2="33.971455"
       y1="11.772627"
       x1="29.089951"
       gradientUnits="userSpaceOnUse"
       id="linearGradient17455"
       xlink:href="#linearGradient5716"
       inkscape:collect="always" />
  </defs>
  <sodipodi:namedview
     id="base"
     pagecolor="#eeeeec"
     bordercolor="#666666"
     borderopacity="1.0"
     inkscape:pageopacity="1"
     inkscape:pageshadow="2"
     inkscape:zoom="1"
     inkscape:cx="416.45384"
     inkscape:cy="187.07787"
     inkscape:document-units="px"
     inkscape:current-layer="layer2"
     showgrid="false"
     borderlayer="true"
     inkscape:showpageshadow="false"
     inkscape:window-width="1484"
     inkscape:window-height="1249"
     inkscape:window-x="2139"
     inkscape:window-y="240"
     inkscape:window-maximized="0"
     width="0px"
     height="0px"
     fit-margin-top="0"
     fit-margin-left="0"
     fit-margin-right="0"
     fit-margin-bottom="0">
    <inkscape:grid
       type="xygrid"
       id="grid17504"
       empspacing="5"
       visible="true"
       enabled="true"
       snapvisiblegridlinesonly="true" />
  </sodipodi:namedview>
  <metadata
     id="metadata10080">
    <rdf:RDF>
      <cc:Work
         rdf:about="">
        <dc:format>image/svg+xml</dc:format>
        <dc:type
           rdf:resource="http://purl.org/dc/dcmitype/StillImage" />
        <dc:title></dc:title>
      </cc:Work>
    </rdf:RDF>
  </metadata>
  <g
     inkscape:label="bg"
     inkscape:groupmode="layer"
     id="layer1"
     transform="translate(0,-992.3622)"
     sodipodi:insensitive="true">
    <rect
       style="fill:url(#linearGradient7064)"
       id="background"
       width="866"
       height="656"
       x="-16"
       y="855.36218"
       inkscape:label="background" />
  </g>
  <g
     inkscape:groupmode="layer"
     id="layer2"
     inkscape:label="fg"
     transform="translate(0,-540)">
    <g
       id="g11020"
       transform="translate(-35,-139.36217)">
      <path
         transform="translate(2,453.36217)"
         d="m 137,278 c 0,9.38884 -7.61116,17 -17,17 -9.38884,0 -17,-7.61116 -17,-17 0,-9.38884 7.61116,-17 17,-17 9.38884,0 17,7.61116 17,17 z"
         sodipodi:ry="17"
         sodipodi:rx="17"
         sodipodi:cy="278"
         sodipodi:cx="120"
         id="path11014"
         style="color:#000000;fill:#000000;fill-opacity:0.27522936;stroke:none;stroke-width:1.06985807;marker:none;visibility:visible;display:inline;overflow:visible;enable-background:accumulate"
         sodipodi:type="arc" />
      <text
         sodipodi:linespacing="125%"
         id="text11016"
         y="736.36218"
         x="122.29289"
         style="font-size:14px;font-style:normal;font-variant:normal;font-weight:bold;font-stretch:normal;text-align:center;line-height:125%;letter-spacing:0px;word-spacing:0px;writing-mode:lr-tb;text-anchor:middle;fill:#ffffff;fill-opacity:1;stroke:none;font-family:Cantarell;-inkscape-font-specification:Cantarell Bold"
         xml:space="preserve"><tspan
           y="736.36218"
           x="122.29289"
           id="tspan11018"
           sodipodi:role="line">4</tspan></text>
    </g>
    <g
       style="display:inline"
       id="g4890"
       transform="matrix(2.6833333,0,0,2.6833333,-395.5101,-1072.8539)">
      <path
         style="fill:#ffffff;fill-opacity:1;stroke:#000000;stroke-width:2;stroke-miterlimit:4;stroke-opacity:1"
         d="m 528.04724,641.93933 209.13044,0 c 2.216,0 4,1.784 4,4 l 0,121.72671 -4,0 -209.13044,0 -4,0 0,-121.72671 c 0,-2.216 1.784,-4 4,-4 z"
         id="path5430"
         inkscape:connector-curvature="0"
         sodipodi:nodetypes="sssccccss" />
      <path
         inkscape:connector-curvature="0"
         id="path5361"
         d="m 524.59833,669.11946 c 212.46132,0 216.29809,0 216.29809,0"
         style="fill:none;stroke:#000000;stroke-width:1.01455009;stroke-linecap:butt;stroke-linejoin:miter;stroke-miterlimit:4;stroke-opacity:1;stroke-dasharray:none" />
      <g
         style="fill:#0c0000;fill-opacity:1"
         transform="matrix(0.74997808,0,0,0.74997808,726.64853,644.28885)"
         id="g5363">
        <g
           transform="translate(-60,-518)"
           id="g5365"
           style="fill:#0c0000;fill-opacity:1;display:inline" />
        <g
           style="fill:#0c0000;fill-opacity:1"
           transform="translate(-60,-518)"
           id="g5367" />
        <g
           style="fill:#0c0000;fill-opacity:1"
           transform="translate(-60,-518)"
           id="g5369" />
        <g
           style="fill:#0c0000;fill-opacity:1"
           transform="translate(-60,-518)"
           id="g5371">
          <g
             transform="translate(19,-242)"
             id="g5373"
             style="fill:#0c0000;fill-opacity:1;display:inline">
            <path
               inkscape:connector-curvature="0"
               d="m 45,764 1,0 c 0.01037,-1.2e-4 0.02079,-4.6e-4 0.03125,0 0.254951,0.0112 0.50987,0.12858 0.6875,0.3125 L 49,766.59375 51.3125,764.3125 C 51.578125,764.082 51.759172,764.007 52,764 l 1,0 0,1 c 0,0.28647 -0.03434,0.55065 -0.25,0.75 l -2.28125,2.28125 2.25,2.25 C 52.906938,770.46942 52.999992,770.7347 53,771 l 0,1 -1,0 c -0.265301,-10e-6 -0.530586,-0.0931 -0.71875,-0.28125 L 49,769.4375 46.71875,771.71875 C 46.530586,771.90694 46.26529,772 46,772 l -1,0 0,-1 c -3e-6,-0.26529 0.09306,-0.53058 0.28125,-0.71875 l 2.28125,-2.25 L 45.28125,765.75 C 45.070508,765.55537 44.97809,765.28075 45,765 l 0,-1 z"
               id="path5375"
               style="font-size:xx-small;font-style:normal;font-variant:normal;font-weight:normal;font-stretch:normal;text-indent:0;text-align:start;text-decoration:none;line-height:normal;letter-spacing:normal;word-spacing:normal;text-transform:none;direction:ltr;block-progression:tb;writing-mode:lr-tb;text-anchor:start;color:#bebebe;fill:#0c0000;fill-opacity:1;fill-rule:nonzero;stroke:none;stroke-width:1.78124988;marker:none;visibility:visible;display:inline;overflow:visible;enable-background:new;font-family:Andale Mono;-inkscape-font-specification:Andale Mono" />
          </g>
        </g>
        <g
           style="fill:#0c0000;fill-opacity:1"
           transform="translate(-60,-518)"
           id="g5377" />
        <g
           style="fill:#0c0000;fill-opacity:1"
           transform="translate(-60,-518)"
           id="g5379" />
        <g
           style="fill:#0c0000;fill-opacity:1"
           transform="translate(-60,-518)"
           id="g5381" />
      </g>
      <g
         style="display:inline"
         transform="matrix(0.74534162,0,0,0.74534162,514.10315,448.26854)"
         id="g7362"
         inkscape:label="view-grid">
        <rect
           inkscape:label="a"
           y="276"
           x="20"
           height="16"
           width="16"
           id="rect7364"
           style="color:#bebebe;fill:none;stroke:none;stroke-width:1;marker:none;visibility:visible;display:inline;overflow:visible" />
        <rect
           style="color:#000000;fill:#000000;fill-opacity:1;fill-rule:nonzero;stroke:none;stroke-width:1;marker:none;visibility:visible;display:inline;overflow:visible;enable-background:new"
           id="rect13363"
           width="2.0000002"
           height="2"
           x="22.9998"
           y="279"
           rx="0.38461545"
           ry="0.37878788" />
        <rect
           ry="0.37878788"
           rx="0.38461545"
           y="279"
           x="26.9998"
           height="2"
           width="2.0000002"
           id="rect13365"
           style="color:#000000;fill:#000000;fill-opacity:1;fill-rule:nonzero;stroke:none;stroke-width:1;marker:none;visibility:visible;display:inline;overflow:visible;enable-background:new" />
        <rect
           style="color:#000000;fill:#000000;fill-opacity:1;fill-rule:nonzero;stroke:none;stroke-width:1;marker:none;visibility:visible;display:inline;overflow:visible;enable-background:new"
           id="rect13367"
           width="2.0000002"
           height="2"
           x="30.9998"
           y="279"
           rx="0.38461545"
           ry="0.37878788" />
        <rect
           ry="0.37878788"
           rx="0.38461545"
           y="283.01562"
           x="22.9998"
           height="2"
           width="2.0000002"
           id="rect13369"
           style="color:#000000;fill:#000000;fill-opacity:1;fill-rule:nonzero;stroke:none;stroke-width:1;marker:none;visibility:visible;display:inline;overflow:visible;enable-background:new" />
        <rect
           style="color:#000000;fill:#000000;fill-opacity:1;fill-rule:nonzero;stroke:none;stroke-width:1;marker:none;visibility:visible;display:inline;overflow:visible;enable-background:new"
           id="rect13371"
           width="2.0000002"
           height="2"
           x="26.9998"
           y="283.01562"
           rx="0.38461545"
           ry="0.37878788" />
        <rect
           ry="0.37878788"
           rx="0.38461545"
           y="283.01562"
           x="30.9998"
           height="2"
           width="2.0000002"
           id="rect13373"
           style="color:#000000;fill:#000000;fill-opacity:1;fill-rule:nonzero;stroke:none;stroke-width:1;marker:none;visibility:visible;display:inline;overflow:visible;enable-background:new" />
        <rect
           style="color:#000000;fill:#000000;fill-opacity:1;fill-rule:nonzero;stroke:none;stroke-width:1;marker:none;visibility:visible;display:inline;overflow:visible;enable-background:new"
           id="rect13375"
           width="2.0000002"
           height="2"
           x="22.9998"
           y="287"
           rx="0.38461545"
           ry="0.37878788" />
        <rect
           ry="0.37878788"
           rx="0.38461545"
           y="287"
           x="26.9998"
           height="2"
           width="2.0000002"
           id="rect13377"
           style="color:#000000;fill:#000000;fill-opacity:1;fill-rule:nonzero;stroke:none;stroke-width:1;marker:none;visibility:visible;display:inline;overflow:visible;enable-background:new" />
        <rect
           style="color:#000000;fill:#000000;fill-opacity:1;fill-rule:nonzero;stroke:none;stroke-width:1;marker:none;visibility:visible;display:inline;overflow:visible;enable-background:new"
           id="rect13379"
           width="2.0000002"
           height="2"
           x="30.9998"
           y="287"
           rx="0.38461545"
           ry="0.37878788" />
      </g>
      <rect
         style="color:#000000;fill:none;stroke:#000000;stroke-width:0.73409271;stroke-opacity:1;marker:none;visibility:visible;display:inline;overflow:visible;enable-background:accumulate"
         id="rect12010"
         width="64.09938"
         height="85.315605"
         x="528.26465"
         y="678.23242"
         rx="0.14333495"
         ry="0.13693438" />
      <text
         xml:space="preserve"
         style="font-size:5.21739149px;font-style:normal;font-variant:normal;font-weight:bold;font-stretch:normal;text-align:start;line-height:125%;letter-spacing:0px;word-spacing:0px;writing-mode:lr-tb;text-anchor:start;fill:#000000;fill-opacity:1;stroke:none;font-family:Cantarell;-inkscape-font-specification:Cantarell Bold"
         x="615.09692"
         y="651.00146"
         id="text12012"
         sodipodi:linespacing="125%"><tspan
           sodipodi:role="line"
           id="tspan12014"
           x="615.09692"
           y="651.00146">Online Accounts</tspan></text>
      <rect
         style="color:#000000;fill:none;stroke:#000000;stroke-width:0.7453416;stroke-linecap:square;stroke-linejoin:miter;stroke-miterlimit:4;stroke-opacity:1;stroke-dasharray:none;stroke-dashoffset:0;marker:none;visibility:visible;display:inline;overflow:visible;enable-background:accumulate"
         id="rect17494"
         width="84.223602"
         height="16.397516"
         x="618.82367"
         y="711.00146"
         rx="3.4050679"
         ry="3.4050679" />
      <text
         sodipodi:linespacing="125%"
         id="text17496"
         y="721.0636"
         x="635.59381"
         style="font-size:5.21739149px;font-style:normal;font-variant:normal;font-weight:normal;font-stretch:normal;text-align:start;line-height:125%;letter-spacing:0px;word-spacing:0px;writing-mode:lr-tb;text-anchor:start;fill:#000000;fill-opacity:1;stroke:none;font-family:Cantarell;-inkscape-font-specification:Cantarell"
         xml:space="preserve"><tspan
           y="721.0636"
           x="635.59381"
           id="tspan17498"
           sodipodi:role="line">Add an online account</tspan></text>
      <g
         style="display:inline"
         id="default-pointer-c"
         inkscape:label="#g5607"
         transform="matrix(1.0281734,0,0,1.0281734,648.32356,718.36693)">
        <path
           inkscape:connector-curvature="0"
           style="opacity:0.6;color:#000000;fill:#000000;fill-opacity:1;fill-rule:nonzero;stroke:#000000;stroke-width:1;stroke-linecap:butt;stroke-linejoin:miter;stroke-miterlimit:10;stroke-opacity:1;stroke-dasharray:none;stroke-dashoffset:0;marker:none;visibility:visible;display:block;overflow:visible;filter:url(#filter5601);enable-background:accumulate"
           d="m 27.135224,2.8483222 0,16.4402338 3.712311,-3.623922 2.12132,4.331029 c 0.519598,1.171377 3.220861,0.229524 2.452777,-1.336875 l -2.099224,-4.496756 4.684582,0 L 27.135224,2.8483222 z"
           id="path5567"
           sodipodi:nodetypes="cccccccc" />
        <path
           inkscape:connector-curvature="0"
           sodipodi:nodetypes="cccccccc"
           id="path5565"
           d="m 26.604893,2.3179921 0,16.4402329 3.712311,-3.623922 2.12132,4.331029 c 0.519598,1.171377 3.220861,0.229524 2.452777,-1.336875 l -2.099224,-4.496756 4.684582,0 L 26.604893,2.3179921 z"
           style="color:#000000;fill:url(#linearGradient17453);fill-opacity:1;fill-rule:nonzero;stroke:#ffffff;stroke-width:1;stroke-linecap:butt;stroke-linejoin:miter;stroke-miterlimit:10;stroke-opacity:1;stroke-dasharray:none;stroke-dashoffset:0;marker:none;visibility:visible;display:block;overflow:visible;enable-background:accumulate" />
        <path
           inkscape:connector-curvature="0"
           style="color:#000000;fill:url(#linearGradient17455);fill-opacity:1;fill-rule:nonzero;stroke:#ffffff;stroke-width:1;stroke-linecap:butt;stroke-linejoin:miter;stroke-miterlimit:10;stroke-opacity:1;stroke-dasharray:none;stroke-dashoffset:0;marker:none;visibility:visible;display:block;overflow:visible;enable-background:accumulate"
           d="m 26.604893,2.3179921 0,16.4402329 3.712311,-3.623922 2.12132,4.331029 c 0.519598,1.171377 3.220861,0.229524 2.452777,-1.336875 l -2.099224,-4.496756 4.684582,0 L 26.604893,2.3179921 z"
           id="path6242"
           sodipodi:nodetypes="cccccccc" />
      </g>
      <rect
         ry="1.914407"
         rx="1.9144073"
         y="751.24988"
         x="530.12799"
         height="10.062137"
         width="20.12421"
         id="rect17500"
         style="color:#000000;fill:none;stroke:#000000;stroke-width:0.74534172;stroke-linecap:square;stroke-linejoin:miter;stroke-miterlimit:4;stroke-opacity:1;stroke-dasharray:none;stroke-dashoffset:0;marker:none;visibility:visible;display:inline;overflow:visible;enable-background:accumulate" />
      <path
         style="color:#000000;fill:none;stroke:#000000;stroke-width:0.7453416;stroke-linecap:square;stroke-linejoin:miter;stroke-miterlimit:4;stroke-opacity:1;stroke-dasharray:none;stroke-dashoffset:0;marker:none;visibility:visible;display:inline;overflow:visible;enable-background:accumulate"
         d="m 540.19011,751.52941 0,9.78261"
         id="path17502"
         inkscape:connector-curvature="0" />
      <g
         inkscape:label="list-remove"
         id="g31978"
         transform="matrix(0.37267081,0,0,0.37267081,534.97271,650.62879)"
         style="display:inline">
        <rect
           style="color:#bebebe;fill:none;stroke:none;stroke-width:1;marker:none;visibility:visible;display:inline;overflow:visible"
           id="rect31980"
           width="16"
           height="16"
           x="20"
           y="276"
           inkscape:label="a" />
        <rect
           style="color:#bebebe;fill:#2e3436;fill-opacity:1;stroke:none;stroke-width:1;marker:none;visibility:visible;display:inline;overflow:visible"
           id="rect31984"
           width="9.9996014"
           height="2.0002136"
           x="23.000198"
           y="282.99979"
           inkscape:label="a" />
      </g>
      <g
         style="display:inline"
         transform="matrix(0.37267081,0,0,0.37267081,524.9106,650.62879)"
         id="g31988"
         inkscape:label="list-add">
        <rect
           inkscape:label="a"
           y="276"
           x="20"
           height="16"
           width="16"
           id="rect31990"
           style="color:#bebebe;fill:none;stroke:none;stroke-width:1;marker:none;visibility:visible;display:inline;overflow:visible" />
        <path
           style="color:#bebebe;fill:#2e3436;fill-opacity:1;stroke:none;stroke-width:1;marker:none;visibility:visible;display:inline;overflow:visible"
           d="m -174,512 0,4 -4,0 0,2 4,0 0,4 2,0 0,-4 4,0 0,-2 -4,0 0,-4 -2,0 z"
           transform="translate(201,-233)"
           id="rect31992"
           inkscape:connector-curvature="0" />
      </g>
    </g>
    <rect
       style="color:#000000;fill:#ffffff;fill-opacity:1;fill-rule:nonzero;stroke:#000000;stroke-width:5.36666679;stroke-linecap:butt;stroke-linejoin:miter;stroke-miterlimit:4;stroke-opacity:1;stroke-dasharray:none;stroke-dashoffset:0;marker:none;visibility:visible;display:inline;overflow:visible;enable-background:accumulate"
       id="rect17558"
       width="381"
       height="315.99997"
       x="212"
       y="638" />
    <text
       xml:space="preserve"
       style="font-size:14px;font-style:normal;font-variant:normal;font-weight:bold;font-stretch:normal;text-align:center;line-height:125%;letter-spacing:0px;word-spacing:0px;writing-mode:lr-tb;text-anchor:middle;fill:#000000;fill-opacity:1;stroke:none;display:inline;font-family:Cantarell;-inkscape-font-specification:Cantarell Bold"
       x="409.45731"
       y="662.83698"
       id="text12012-1"
       sodipodi:linespacing="125%"><tspan
         sodipodi:role="line"
         id="tspan12014-2"
         x="409.45731"
         y="662.83698">Add Account</tspan></text>
    <rect
       style="color:#000000;fill:none;stroke:#000000;stroke-width:1.96981525;stroke-opacity:1;marker:none;visibility:visible;display:inline;overflow:visible;enable-background:accumulate"
       id="rect12010-4"
       width="363.19278"
       height="213.93021"
       x="221.00003"
       y="680"
       rx="0.38461548"
       ry="0.36744055" />
    <g
       id="g17909"
       transform="translate(0,-37)">
      <rect
         ry="6.1369629"
         rx="6.1369629"
         y="944"
         x="486"
         height="30.684212"
         width="96"
         id="rect17494-2"
         style="color:#000000;fill:none;stroke:#000000;stroke-width:1.99999988;stroke-linecap:square;stroke-linejoin:miter;stroke-miterlimit:4;stroke-opacity:1;stroke-dasharray:none;stroke-dashoffset:0;marker:none;visibility:visible;display:inline;overflow:visible;enable-background:accumulate" />
      <text
         xml:space="preserve"
         style="font-size:14px;font-style:normal;font-variant:normal;font-weight:normal;font-stretch:normal;text-align:start;line-height:125%;letter-spacing:0px;word-spacing:0px;writing-mode:lr-tb;text-anchor:start;fill:#000000;fill-opacity:1;stroke:none;display:inline;font-family:Cantarell;-inkscape-font-specification:Cantarell"
         x="514.99988"
         y="964.00006"
         id="text17496-8"
         sodipodi:linespacing="125%"><tspan
           sodipodi:role="line"
           id="tspan17498-4"
           x="514.99988"
           y="964.00006">Cancel</tspan></text>
    </g>
    <text
       sodipodi:linespacing="125%"
       id="text17640"
       y="709.83698"
       x="274.45731"
       style="font-size:14px;font-style:normal;font-variant:normal;font-weight:bold;font-stretch:normal;text-align:start;line-height:125%;letter-spacing:0px;word-spacing:0px;writing-mode:lr-tb;text-anchor:start;fill:#000000;fill-opacity:1;stroke:none;display:inline;font-family:Cantarell;-inkscape-font-specification:Cantarell Bold"
       xml:space="preserve"><tspan
         y="709.83698"
         x="274.45731"
         id="tspan17642"
         sodipodi:role="line">Google</tspan></text>
    <text
       xml:space="preserve"
       style="font-size:14px;font-style:normal;font-variant:normal;font-weight:bold;font-stretch:normal;text-align:start;line-height:125%;letter-spacing:0px;word-spacing:0px;writing-mode:lr-tb;text-anchor:start;fill:#000000;fill-opacity:1;stroke:none;display:inline;font-family:Cantarell;-inkscape-font-specification:Cantarell Bold"
       x="274.45731"
       y="749.83698"
       id="text17893"
       sodipodi:linespacing="125%"><tspan
         sodipodi:role="line"
         id="tspan17895"
         x="274.45731"
         y="749.83698">Facebook</tspan></text>
    <text
       sodipodi:linespacing="125%"
       id="text17897"
       y="789.83698"
       x="274.45731"
       style="font-size:14px;font-style:normal;font-variant:normal;font-weight:bold;font-stretch:normal;text-align:start;line-height:125%;letter-spacing:0px;word-spacing:0px;writing-mode:lr-tb;text-anchor:start;fill:#000000;fill-opacity:1;stroke:none;display:inline;font-family:Cantarell;-inkscape-font-specification:Cantarell Bold"
       xml:space="preserve"><tspan
         y="789.83698"
         x="274.45731"
         id="tspan17899"
         sodipodi:role="line">Windows Live</tspan></text>
    <text
       xml:space="preserve"
       style="font-size:14px;font-style:normal;font-variant:normal;font-weight:bold;font-stretch:normal;text-align:start;line-height:125%;letter-spacing:0px;word-spacing:0px;writing-mode:lr-tb;text-anchor:start;fill:#000000;fill-opacity:1;stroke:none;display:inline;font-family:Cantarell;-inkscape-font-specification:Cantarell Bold"
       x="274.45731"
       y="829.83698"
       id="text17901"
       sodipodi:linespacing="125%"><tspan
         sodipodi:role="line"
         id="tspan17903"
         x="274.45731"
         y="829.83698">Microsoft Exchange</tspan></text>
    <text
       sodipodi:linespacing="125%"
       id="text17905"
       y="869.83698"
       x="274.45731"
       style="font-size:14px;font-style:normal;font-variant:normal;font-weight:bold;font-stretch:normal;text-align:start;line-height:125%;letter-spacing:0px;word-spacing:0px;writing-mode:lr-tb;text-anchor:start;fill:#000000;fill-opacity:1;stroke:none;display:inline;font-family:Cantarell;-inkscape-font-specification:Cantarell Bold"
       xml:space="preserve"><tspan
         y="869.83698"
         x="274.45731"
         id="tspan17907"
         sodipodi:role="line">Enterprise Login (Kerberos)</tspan></text>
    <g
       style="display:inline"
       id="g3922"
       transform="matrix(2,0,0,2,191,373)"
       inkscape:label="account-facebook">
      <rect
         style="color:#bebebe;fill:none;stroke:none;stroke-width:1;marker:none;visibility:visible;display:inline;overflow:visible"
         id="rect2941"
         width="16"
         height="16"
         x="-194"
         y="20"
         inkscape:label="audio-volume-high"
         transform="matrix(0,-1,1,0,0,0)" />
      <path
         style="color:#000000;fill:#babdb6;fill-opacity:1;fill-rule:nonzero;stroke:none;stroke-width:0.5;marker:none;visibility:visible;display:inline;overflow:visible;enable-background:new"
         d="M 22.116732,178 C 20.946094,178 20,178.94979 20,180.125 l 0,11.75 c 0,1.17521 0.946094,2.125 2.116732,2.125 l 6.910506,0 0,-6 -0.99611,0 0,-2 0.99611,0 0,-1.0625 c 0,-1.84445 1.374066,-2.88912 3.175096,-2.9375 l 1.77432,0 0,2 -1.089494,0 c -0.625856,0 -0.902724,0.22291 -0.902724,0.90625 l 0,1.09375 1.712062,0 -0.217898,2 -1.494164,0 0,6 1.898832,0 C 35.053906,194 36,193.05021 36,191.875 l 0,-11.75 C 36,178.94979 35.053906,178 33.883268,178 z"
         id="rect14063"
         inkscape:connector-curvature="0"
         sodipodi:nodetypes="sssscccccscccsscccccsssss" />
    </g>
    <path
       style="color:#000000;fill:#babdb6;fill-opacity:1;fill-rule:nonzero;stroke:none;stroke-width:0.5;marker:none;visibility:visible;display:inline;overflow:visible;enable-background:new"
       d="m 240.06244,689.01715 -3.56249,-0.016 c -2.51115,1.30826 -2.88681,4.57261 -2.06249,7.56248 1.08953,3.95154 3.26699,6.72334 6.18748,5.81248 4.0738,-1.27088 4.19302,-4.59783 2.93749,-8.49998 -0.66404,-2.06383 -1.89568,-3.7267 -3.49999,-4.85936 z m 9.93747,6.17186 c 0,1.75946 -0.71594,3.26127 -1.5,4.43749 l 0,0.0624 -0.1874,0.125 c 0,0 -0.50952,0.59837 -1.12499,1.18749 -0.61462,0.58922 -1.5625,1.375 -1.5625,1.375 -0.7713,0.57968 -1.1875,1.34601 -1.1875,2.18749 0,0.84434 0.53654,1.6075 1.3125,2.18749 0,0 1.5736,0.96414 2.43749,1.6875 0.86354,0.7238 1.875,1.68749 1.875,1.68749 1.16965,1.09974 1.93749,2.8523 1.93749,4.81249 0,1.68819 -0.5353,3.21907 -1.43749,4.31249 l -1.375,1.74999 8.56247,0 c 2.34128,0 4.24999,-1.89957 4.24999,-4.24999 l 0,-23.49992 c 0,-2.35042 -1.90871,-4.24999 -4.24999,-4.24999 -1.14773,-0.014 -3.64297,0.004 -3.64297,0.004 l -0.031,1.97129 -5.13194,0.57558 c 0.7509,1.3041 1.03662,2.60573 1.05596,3.63721 z m -19.99994,4.87499 0,11.24996 c 3.47287,-2.32521 9.68747,-2.37499 9.68747,-2.37499 0,0 0.027,-0.0372 0,-0.0624 -2.49155,-1.91534 -1.4375,-4.12509 -1.4375,-4.12509 -3.8524,0.3282 -5.61338,-1.10972 -8.24997,-4.68748 z m 10.12497,11.06246 c -3.46111,0.1948 -7.91464,1.6274 -7.99998,5.06249 0,2.05473 1.33766,3.91718 3.24999,4.74998 0,0 0.0688,0.0442 0.125,0.0624 l 0.0624,0 9.06247,0 c 0,0 0.0212,-0.0894 0.0624,-0.125 4.90245,-4.33881 1.20038,-6.85438 -2.99999,-9.68747 -0.0758,-0.0504 -0.1874,-0.0624 -0.1874,-0.0624 -0.43799,-0.0208 -0.88055,-0.0278 -1.37499,0 z"
       id="path14750"
       inkscape:connector-curvature="0"
       sodipodi:nodetypes="ccccscscccccscccsccssscccccsccccsccccccccsccc" />
  </g>
</svg>
