<?xml version="1.0" encoding="UTF-8" standalone="no"?>
<!-- Created with Inkscape (http://www.inkscape.org/) -->

<svg
   xmlns:osb="http://www.openswatchbook.org/uri/2009/osb"
   xmlns:dc="http://purl.org/dc/elements/1.1/"
   xmlns:cc="http://creativecommons.org/ns#"
   xmlns:rdf="http://www.w3.org/1999/02/22-rdf-syntax-ns#"
   xmlns:svg="http://www.w3.org/2000/svg"
   xmlns="http://www.w3.org/2000/svg"
   xmlns:xlink="http://www.w3.org/1999/xlink"
   xmlns:sodipodi="http://sodipodi.sourceforge.net/DTD/sodipodi-0.dtd"
   xmlns:inkscape="http://www.inkscape.org/namespaces/inkscape"
   width="840"
   height="500"
   id="svg10075"
   version="1.1"
   inkscape:version="0.48.4 r9939"
   sodipodi:docname="gs-goa5.svg">
  <defs
     id="defs10077">
    <linearGradient
       osb:paint="gradient"
       id="RHEL7">
      <stop
         id="stop13323"
         offset="0"
         style="stop-color:#a3dbe8;stop-opacity:1;" />
      <stop
         id="stop13325"
         offset="1"
         style="stop-color:#a3dbe8;stop-opacity:1;" />
    </linearGradient>
    <linearGradient
       id="GNOME"
       osb:paint="gradient">
      <stop
         style="stop-color:#eeedec;stop-opacity:1;"
         offset="0"
         id="stop11074" />
      <stop
         style="stop-color:#eeedec;stop-opacity:1"
         offset="1"
         id="stop11076" />
    </linearGradient>
    <linearGradient
       id="BLANK"
       osb:paint="gradient">
      <stop
         style="stop-color:#eeedec;stop-opacity:0;"
         offset="0"
         id="stop7012" />
      <stop
         style="stop-color:#eeedec;stop-opacity:0"
         offset="1"
         id="stop7014" />
    </linearGradient>
    <linearGradient
       inkscape:collect="always"
       xlink:href="#GNOME"
       id="linearGradient7064"
       gradientTransform="matrix(1.1834379,0,0,0.896461,5.7016703,415.60382)"
       x1="-18.33782"
       y1="490.54935"
       x2="713.42853"
       y2="490.54935"
       gradientUnits="userSpaceOnUse" />
    <linearGradient
       inkscape:collect="always"
       xlink:href="#linearGradient5716"
       id="linearGradient5885"
       x1="29.089951"
       y1="11.772627"
       x2="33.971455"
       y2="9.7093649"
       gradientUnits="userSpaceOnUse" />
    <linearGradient
       id="linearGradient5716">
      <stop
         style="stop-color:#000000;stop-opacity:1;"
         offset="0"
         id="stop5718" />
      <stop
         style="stop-color:#484848;stop-opacity:1;"
         offset="1"
         id="stop5720" />
    </linearGradient>
    <linearGradient
       inkscape:collect="always"
       xlink:href="#linearGradient5716"
       id="linearGradient17441"
       x1="29.089951"
       y1="11.772627"
       x2="33.971455"
       y2="9.7093649"
       gradientUnits="userSpaceOnUse" />
    <linearGradient
       id="linearGradient17443">
      <stop
         style="stop-color:#000000;stop-opacity:1;"
         offset="0"
         id="stop17445" />
      <stop
         style="stop-color:#484848;stop-opacity:1;"
         offset="1"
         id="stop17447" />
    </linearGradient>
    <linearGradient
       y2="9.7093649"
       x2="33.971455"
       y1="11.772627"
       x1="29.089951"
       gradientUnits="userSpaceOnUse"
       id="linearGradient17453"
       xlink:href="#linearGradient5716"
       inkscape:collect="always" />
    <linearGradient
       y2="9.7093649"
       x2="33.971455"
       y1="11.772627"
       x1="29.089951"
       gradientUnits="userSpaceOnUse"
       id="linearGradient17455"
       xlink:href="#linearGradient5716"
       inkscape:collect="always" />
  </defs>
  <sodipodi:namedview
     id="base"
     pagecolor="#eeeeec"
     bordercolor="#666666"
     borderopacity="1.0"
     inkscape:pageopacity="1"
     inkscape:pageshadow="2"
     inkscape:zoom="1"
     inkscape:cx="515.58396"
     inkscape:cy="121.5331"
     inkscape:document-units="px"
     inkscape:current-layer="g4890"
     showgrid="false"
     borderlayer="true"
     inkscape:showpageshadow="false"
     inkscape:window-width="1484"
     inkscape:window-height="1249"
     inkscape:window-x="643"
     inkscape:window-y="104"
     inkscape:window-maximized="0"
     width="0px"
     height="0px"
     fit-margin-top="0"
     fit-margin-left="0"
     fit-margin-right="0"
     fit-margin-bottom="0">
    <inkscape:grid
       type="xygrid"
       id="grid17504"
       empspacing="5"
       visible="true"
       enabled="true"
       snapvisiblegridlinesonly="true" />
  </sodipodi:namedview>
  <metadata
     id="metadata10080">
    <rdf:RDF>
      <cc:Work
         rdf:about="">
        <dc:format>image/svg+xml</dc:format>
        <dc:type
           rdf:resource="http://purl.org/dc/dcmitype/StillImage" />
        <dc:title />
      </cc:Work>
    </rdf:RDF>
  </metadata>
  <g
     inkscape:label="bg"
     inkscape:groupmode="layer"
     id="layer1"
     transform="translate(0,-992.3622)"
     sodipodi:insensitive="true">
    <rect
       style="fill:url(#linearGradient7064)"
       id="background"
       width="866"
       height="656"
       x="-16"
       y="855.36218"
       inkscape:label="background" />
  </g>
  <g
     inkscape:groupmode="layer"
     id="layer2"
     inkscape:label="fg"
     transform="translate(0,-540)">
    <g
       id="g11020"
       transform="translate(-35,-139.36217)">
      <path
         transform="translate(2,453.36217)"
         d="m 137,278 c 0,9.38884 -7.61116,17 -17,17 -9.38884,0 -17,-7.61116 -17,-17 0,-9.38884 7.61116,-17 17,-17 9.38884,0 17,7.61116 17,17 z"
         sodipodi:ry="17"
         sodipodi:rx="17"
         sodipodi:cy="278"
         sodipodi:cx="120"
         id="path11014"
         style="color:#000000;fill:#000000;fill-opacity:0.27522936;stroke:none;stroke-width:1.06985807;marker:none;visibility:visible;display:inline;overflow:visible;enable-background:accumulate"
         sodipodi:type="arc" />
      <text
         sodipodi:linespacing="125%"
         id="text11016"
         y="736.36218"
         x="122.29289"
         style="font-size:14px;font-style:normal;font-variant:normal;font-weight:bold;font-stretch:normal;text-align:center;line-height:125%;letter-spacing:0px;word-spacing:0px;writing-mode:lr-tb;text-anchor:middle;fill:#ffffff;fill-opacity:1;stroke:none;font-family:Cantarell;-inkscape-font-specification:Cantarell Bold"
         xml:space="preserve"><tspan
           y="736.36218"
           x="122.29289"
           id="tspan11018"
           sodipodi:role="line">7</tspan></text>
    </g>
    <g
       style="display:inline"
       id="g4890"
       transform="matrix(2.6833333,0,0,2.6833333,-1275.5101,-1072.8539)">
      <path
         style="fill:#ffffff;fill-opacity:1;stroke:#000000;stroke-width:1.11801244;stroke-miterlimit:4;stroke-opacity:1;stroke-dasharray:none"
         d="m 528.04724,641.93933 209.13044,0 c 2.216,0 4,1.784 4,4 l 0,121.72671 -4,0 -209.13044,0 -4,0 0,-121.72671 c 0,-2.216 1.784,-4 4,-4 z"
         id="path5430"
         inkscape:connector-curvature="0"
         sodipodi:nodetypes="sssccccss" />
      <rect
         style="color:#000000;fill:#000000;fill-opacity:1;fill-rule:nonzero;stroke:none;stroke-width:5.36666679;marker:none;visibility:visible;display:inline;overflow:visible;enable-background:accumulate"
         id="rect25666"
         width="67.671722"
         height="17.142857"
         x="527.89197"
         y="677.83374"
         rx="0.053416751"
         ry="0.051031448" />
      <path
         inkscape:connector-curvature="0"
         id="path5361"
         d="m 524.59833,669.11946 c 212.46132,0 216.29809,0 216.29809,0"
         style="fill:none;stroke:#000000;stroke-width:0.37267081;stroke-linecap:butt;stroke-linejoin:miter;stroke-miterlimit:4;stroke-opacity:1;stroke-dasharray:none" />
      <g
         style="fill:#0c0000;fill-opacity:1"
         transform="matrix(0.74997808,0,0,0.74997808,726.64853,644.28885)"
         id="g5363">
        <g
           transform="translate(-60,-518)"
           id="g5365"
           style="fill:#0c0000;fill-opacity:1;display:inline" />
        <g
           style="fill:#0c0000;fill-opacity:1"
           transform="translate(-60,-518)"
           id="g5367" />
        <g
           style="fill:#0c0000;fill-opacity:1"
           transform="translate(-60,-518)"
           id="g5369" />
        <g
           style="fill:#0c0000;fill-opacity:1"
           transform="translate(-60,-518)"
           id="g5371">
          <g
             transform="translate(19,-242)"
             id="g5373"
             style="fill:#0c0000;fill-opacity:1;display:inline">
            <path
               inkscape:connector-curvature="0"
               d="m 45,764 1,0 c 0.01037,-1.2e-4 0.02079,-4.6e-4 0.03125,0 0.254951,0.0112 0.50987,0.12858 0.6875,0.3125 L 49,766.59375 51.3125,764.3125 C 51.578125,764.082 51.759172,764.007 52,764 l 1,0 0,1 c 0,0.28647 -0.03434,0.55065 -0.25,0.75 l -2.28125,2.28125 2.25,2.25 C 52.906938,770.46942 52.999992,770.7347 53,771 l 0,1 -1,0 c -0.265301,-10e-6 -0.530586,-0.0931 -0.71875,-0.28125 L 49,769.4375 46.71875,771.71875 C 46.530586,771.90694 46.26529,772 46,772 l -1,0 0,-1 c -3e-6,-0.26529 0.09306,-0.53058 0.28125,-0.71875 l 2.28125,-2.25 L 45.28125,765.75 C 45.070508,765.55537 44.97809,765.28075 45,765 l 0,-1 z"
               id="path5375"
               style="font-size:xx-small;font-style:normal;font-variant:normal;font-weight:normal;font-stretch:normal;text-indent:0;text-align:start;text-decoration:none;line-height:normal;letter-spacing:normal;word-spacing:normal;text-transform:none;direction:ltr;block-progression:tb;writing-mode:lr-tb;text-anchor:start;color:#bebebe;fill:#0c0000;fill-opacity:1;fill-rule:nonzero;stroke:none;stroke-width:1.78124988;marker:none;visibility:visible;display:inline;overflow:visible;enable-background:new;font-family:Andale Mono;-inkscape-font-specification:Andale Mono" />
          </g>
        </g>
        <g
           style="fill:#0c0000;fill-opacity:1"
           transform="translate(-60,-518)"
           id="g5377" />
        <g
           style="fill:#0c0000;fill-opacity:1"
           transform="translate(-60,-518)"
           id="g5379" />
        <g
           style="fill:#0c0000;fill-opacity:1"
           transform="translate(-60,-518)"
           id="g5381" />
      </g>
      <g
         style="display:inline"
         transform="matrix(0.74534162,0,0,0.74534162,514.10315,448.26854)"
         id="g7362"
         inkscape:label="view-grid">
        <rect
           inkscape:label="a"
           y="276"
           x="20"
           height="16"
           width="16"
           id="rect7364"
           style="color:#bebebe;fill:none;stroke:none;stroke-width:1;marker:none;visibility:visible;display:inline;overflow:visible" />
        <rect
           style="color:#000000;fill:#000000;fill-opacity:1;fill-rule:nonzero;stroke:none;stroke-width:1;marker:none;visibility:visible;display:inline;overflow:visible;enable-background:new"
           id="rect13363"
           width="2.0000002"
           height="2"
           x="22.9998"
           y="279"
           rx="0.38461545"
           ry="0.37878788" />
        <rect
           ry="0.37878788"
           rx="0.38461545"
           y="279"
           x="26.9998"
           height="2"
           width="2.0000002"
           id="rect13365"
           style="color:#000000;fill:#000000;fill-opacity:1;fill-rule:nonzero;stroke:none;stroke-width:1;marker:none;visibility:visible;display:inline;overflow:visible;enable-background:new" />
        <rect
           style="color:#000000;fill:#000000;fill-opacity:1;fill-rule:nonzero;stroke:none;stroke-width:1;marker:none;visibility:visible;display:inline;overflow:visible;enable-background:new"
           id="rect13367"
           width="2.0000002"
           height="2"
           x="30.9998"
           y="279"
           rx="0.38461545"
           ry="0.37878788" />
        <rect
           ry="0.37878788"
           rx="0.38461545"
           y="283.01562"
           x="22.9998"
           height="2"
           width="2.0000002"
           id="rect13369"
           style="color:#000000;fill:#000000;fill-opacity:1;fill-rule:nonzero;stroke:none;stroke-width:1;marker:none;visibility:visible;display:inline;overflow:visible;enable-background:new" />
        <rect
           style="color:#000000;fill:#000000;fill-opacity:1;fill-rule:nonzero;stroke:none;stroke-width:1;marker:none;visibility:visible;display:inline;overflow:visible;enable-background:new"
           id="rect13371"
           width="2.0000002"
           height="2"
           x="26.9998"
           y="283.01562"
           rx="0.38461545"
           ry="0.37878788" />
        <rect
           ry="0.37878788"
           rx="0.38461545"
           y="283.01562"
           x="30.9998"
           height="2"
           width="2.0000002"
           id="rect13373"
           style="color:#000000;fill:#000000;fill-opacity:1;fill-rule:nonzero;stroke:none;stroke-width:1;marker:none;visibility:visible;display:inline;overflow:visible;enable-background:new" />
        <rect
           style="color:#000000;fill:#000000;fill-opacity:1;fill-rule:nonzero;stroke:none;stroke-width:1;marker:none;visibility:visible;display:inline;overflow:visible;enable-background:new"
           id="rect13375"
           width="2.0000002"
           height="2"
           x="22.9998"
           y="287"
           rx="0.38461545"
           ry="0.37878788" />
        <rect
           ry="0.37878788"
           rx="0.38461545"
           y="287"
           x="26.9998"
           height="2"
           width="2.0000002"
           id="rect13377"
           style="color:#000000;fill:#000000;fill-opacity:1;fill-rule:nonzero;stroke:none;stroke-width:1;marker:none;visibility:visible;display:inline;overflow:visible;enable-background:new" />
        <rect
           style="color:#000000;fill:#000000;fill-opacity:1;fill-rule:nonzero;stroke:none;stroke-width:1;marker:none;visibility:visible;display:inline;overflow:visible;enable-background:new"
           id="rect13379"
           width="2.0000002"
           height="2"
           x="30.9998"
           y="287"
           rx="0.38461545"
           ry="0.37878788" />
      </g>
      <rect
         style="color:#000000;fill:none;stroke:#000000;stroke-width:0.3726708;stroke-miterlimit:4;stroke-opacity:1;stroke-dasharray:none;marker:none;visibility:visible;display:inline;overflow:visible;enable-background:accumulate"
         id="rect12010"
         width="67.080742"
         height="85.315605"
         x="528.07812"
         y="678.02258"
         rx="0.14333495"
         ry="0.13693438" />
      <text
         xml:space="preserve"
         style="font-size:5.21739149px;font-style:normal;font-variant:normal;font-weight:bold;font-stretch:normal;text-align:center;line-height:125%;letter-spacing:0px;word-spacing:0px;writing-mode:lr-tb;text-anchor:middle;fill:#000000;fill-opacity:1;stroke:none;font-family:Cantarell;-inkscape-font-specification:Cantarell Bold"
         x="634.84845"
         y="651.00146"
         id="text12012"
         sodipodi:linespacing="125%"><tspan
           sodipodi:role="line"
           id="tspan12014"
           x="634.84845"
           y="651.00146">Online Accounts</tspan></text>
      <rect
         ry="1.914407"
         rx="1.9144073"
         y="751.24988"
         x="530.12799"
         height="10.062137"
         width="20.12421"
         id="rect17500"
         style="color:#000000;fill:none;stroke:#000000;stroke-width:0.74534172;stroke-linecap:square;stroke-linejoin:miter;stroke-miterlimit:4;stroke-opacity:1;stroke-dasharray:none;stroke-dashoffset:0;marker:none;visibility:visible;display:inline;overflow:visible;enable-background:accumulate" />
      <path
         style="color:#000000;fill:none;stroke:#000000;stroke-width:0.7453416;stroke-linecap:square;stroke-linejoin:miter;stroke-miterlimit:4;stroke-opacity:1;stroke-dasharray:none;stroke-dashoffset:0;marker:none;visibility:visible;display:inline;overflow:visible;enable-background:accumulate"
         d="m 540.19011,751.52941 0,9.78261"
         id="path17502"
         inkscape:connector-curvature="0" />
      <g
         inkscape:label="list-remove"
         id="g31978"
         transform="matrix(0.37267081,0,0,0.37267081,534.97271,650.62879)"
         style="display:inline">
        <rect
           style="color:#bebebe;fill:none;stroke:none;stroke-width:1;marker:none;visibility:visible;display:inline;overflow:visible"
           id="rect31980"
           width="16"
           height="16"
           x="20"
           y="276"
           inkscape:label="a" />
        <rect
           style="color:#bebebe;fill:#2e3436;fill-opacity:1;stroke:none;stroke-width:1;marker:none;visibility:visible;display:inline;overflow:visible"
           id="rect31984"
           width="9.9996014"
           height="2.0002136"
           x="23.000198"
           y="282.99979"
           inkscape:label="a" />
      </g>
      <g
         style="display:inline"
         transform="matrix(0.37267081,0,0,0.37267081,524.9106,650.62879)"
         id="g31988"
         inkscape:label="list-add">
        <rect
           inkscape:label="a"
           y="276"
           x="20"
           height="16"
           width="16"
           id="rect31990"
           style="color:#bebebe;fill:none;stroke:none;stroke-width:1;marker:none;visibility:visible;display:inline;overflow:visible" />
        <path
           style="color:#bebebe;fill:#2e3436;fill-opacity:1;stroke:none;stroke-width:1;marker:none;visibility:visible;display:inline;overflow:visible"
           d="m -174,512 0,4 -4,0 0,2 4,0 0,4 2,0 0,-4 4,0 0,-2 -4,0 0,-4 -2,0 z"
           transform="translate(201,-233)"
           id="rect31992"
           inkscape:connector-curvature="0" />
      </g>
      <text
         sodipodi:linespacing="125%"
         id="text17640"
         y="685.02728"
         x="547.86987"
         style="font-size:5.21739149px;font-style:normal;font-variant:normal;font-weight:bold;font-stretch:normal;text-align:start;line-height:125%;letter-spacing:0px;word-spacing:0px;writing-mode:lr-tb;text-anchor:start;fill:#ffffff;fill-opacity:1;stroke:none;display:inline;font-family:Cantarell;-inkscape-font-specification:Cantarell Bold"
         xml:space="preserve"><tspan
           y="685.02728"
           x="547.86987"
           id="tspan17642"
           sodipodi:role="line">Google</tspan></text>
      <path
         style="color:#000000;fill:#babdb6;fill-opacity:1;fill-rule:nonzero;stroke:none;stroke-width:0.5;marker:none;visibility:visible;display:inline;overflow:visible;enable-background:new"
         d="m 535.05192,680.62236 -1.32763,-0.006 c -0.93583,0.48755 -1.07583,1.70407 -0.76863,2.81831 0.40603,1.47262 1.21751,2.50559 2.30589,2.16614 1.51819,-0.47362 1.56262,-1.71347 1.09472,-3.16769 -0.24747,-0.76913 -0.70647,-1.38883 -1.30435,-1.81094 z m 3.70341,2.30007 c 0,0.6557 -0.26681,1.21538 -0.55901,1.65372 l 0,0.0233 -0.0698,0.0466 c 0,0 -0.18988,0.223 -0.41925,0.44254 -0.22905,0.21959 -0.5823,0.51243 -0.5823,0.51243 -0.28744,0.21603 -0.44254,0.50162 -0.44254,0.81521 0,0.31466 0.19995,0.59907 0.48913,0.81521 0,0 0.58643,0.35931 0.90838,0.62889 0.32182,0.26974 0.69876,0.62887 0.69876,0.62887 0.43589,0.40985 0.72204,1.06297 0.72204,1.79348 0,0.62914 -0.19949,1.19965 -0.53571,1.60714 l -0.51242,0.65217 3.19098,0 c 0.87253,0 1.58385,-0.70792 1.58385,-1.58385 l 0,-8.75773 c 0,-0.87594 -0.71132,-1.58385 -1.58385,-1.58385 -0.42772,-0.005 -1.35763,10e-4 -1.35763,10e-4 l -0.0115,0.73464 -1.91252,0.2145 c 0.27984,0.486 0.38632,0.97108 0.39352,1.35549 z m -7.4534,1.81677 0,4.19253 c 1.29424,-0.86654 3.61024,-0.88509 3.61024,-0.88509 0,0 0.0101,-0.0139 0,-0.0233 -0.92853,-0.71379 -0.53571,-1.5373 -0.53571,-1.5373 -1.43568,0.12231 -2.09195,-0.41356 -3.07453,-1.74688 z m 3.77329,4.12265 c -1.28986,0.0726 -2.94956,0.60649 -2.98136,1.88664 0,0.76574 0.4985,1.45982 1.21117,1.77018 0,0 0.0256,0.0165 0.0466,0.0233 l 0.0233,0 3.37732,0 c 0,0 0.008,-0.0333 0.0233,-0.0466 1.827,-1.61694 0.44735,-2.55442 -1.118,-3.61023 -0.0283,-0.0188 -0.0698,-0.0233 -0.0698,-0.0233 -0.16323,-0.008 -0.32816,-0.0104 -0.51242,0 z"
         id="path14750"
         inkscape:connector-curvature="0"
         sodipodi:nodetypes="ccccscscccccscccsccssscccccsccccsccccccccsccc" />
      <text
         xml:space="preserve"
         style="font-size:4.47204971px;font-style:normal;font-variant:normal;font-weight:normal;font-stretch:normal;text-align:start;line-height:125%;letter-spacing:0px;word-spacing:0px;writing-mode:lr-tb;text-anchor:start;fill:#ffffff;fill-opacity:1;stroke:none;display:inline;font-family:Cantarell;-inkscape-font-specification:Cantarell"
         x="547.86987"
         y="691.73529"
         id="text25662"
         sodipodi:linespacing="125%"><tspan
           sodipodi:role="line"
           id="tspan25664"
           x="547.86987"
           y="691.73529">john.doe@gmail.com</tspan></text>
      <text
         xml:space="preserve"
         style="font-size:5.21739148999999980px;font-style:normal;font-variant:normal;font-weight:bold;font-stretch:normal;text-align:start;line-height:125%;letter-spacing:0px;word-spacing:0px;writing-mode:lr-tb;text-anchor:start;fill:#000000;fill-opacity:1;stroke:none;display:inline;font-family:Cantarell;-inkscape-font-specification:Cantarell Bold"
         x="623.14935"
         y="685.02728"
         id="text26176"
         sodipodi:linespacing="125%"><tspan
           sodipodi:role="line"
           id="tspan26178"
           x="623.14935"
           y="685.02728">Google</tspan></text>
      <path
         sodipodi:nodetypes="ccccscscccccscccsccssscccccsccccsccccccccsccc"
         inkscape:connector-curvature="0"
         id="path26180"
         d="m 610.33142,680.62236 -1.32763,-0.006 c -0.93583,0.48755 -1.07583,1.70407 -0.76863,2.81831 0.40603,1.47262 1.21751,2.50559 2.30589,2.16614 1.51819,-0.47362 1.56262,-1.71347 1.09472,-3.16769 -0.24747,-0.76913 -0.70647,-1.38883 -1.30435,-1.81094 z m 3.70341,2.30007 c 0,0.6557 -0.26681,1.21538 -0.55901,1.65372 l 0,0.0233 -0.0698,0.0466 c 0,0 -0.18988,0.223 -0.41925,0.44254 -0.22905,0.21959 -0.5823,0.51243 -0.5823,0.51243 -0.28744,0.21603 -0.44254,0.50162 -0.44254,0.81521 0,0.31466 0.19995,0.59907 0.48913,0.81521 0,0 0.58643,0.35931 0.90838,0.62889 0.32182,0.26974 0.69876,0.62887 0.69876,0.62887 0.43589,0.40985 0.72204,1.06297 0.72204,1.79348 0,0.62914 -0.19949,1.19965 -0.53571,1.60714 l -0.51242,0.65217 3.19098,0 c 0.87253,0 1.58385,-0.70792 1.58385,-1.58385 l 0,-8.75773 c 0,-0.87594 -0.71132,-1.58385 -1.58385,-1.58385 -0.42772,-0.005 -1.35763,10e-4 -1.35763,10e-4 l -0.0115,0.73464 -1.91252,0.2145 c 0.27984,0.486 0.38632,0.97108 0.39352,1.35549 z m -7.4534,1.81677 0,4.19253 c 1.29424,-0.86654 3.61024,-0.88509 3.61024,-0.88509 0,0 0.0101,-0.0139 0,-0.0233 -0.92853,-0.71379 -0.53571,-1.5373 -0.53571,-1.5373 -1.43568,0.12231 -2.09195,-0.41356 -3.07453,-1.74688 z m 3.77329,4.12265 c -1.28986,0.0726 -2.94956,0.60649 -2.98136,1.88664 0,0.76574 0.4985,1.45982 1.21117,1.77018 0,0 0.0256,0.0165 0.0466,0.0233 l 0.0233,0 3.37732,0 c 0,0 0.008,-0.0333 0.0233,-0.0466 1.827,-1.61694 0.44735,-2.55442 -1.118,-3.61023 -0.0283,-0.0188 -0.0698,-0.0233 -0.0698,-0.0233 -0.16323,-0.008 -0.32816,-0.0104 -0.51242,0 z"
         style="color:#000000;fill:#babdb6;fill-opacity:1;fill-rule:nonzero;stroke:none;stroke-width:0.5;marker:none;visibility:visible;display:inline;overflow:visible;enable-background:new" />
      <text
         sodipodi:linespacing="125%"
         id="text26182"
         y="691.73529"
         x="623.14935"
         style="font-size:4.47204971000000029px;font-style:normal;font-variant:normal;font-weight:normal;font-stretch:normal;text-align:start;line-height:125%;letter-spacing:0px;word-spacing:0px;writing-mode:lr-tb;text-anchor:start;fill:#000000;fill-opacity:1;stroke:none;display:inline;font-family:Cantarell;-inkscape-font-specification:Cantarell"
         xml:space="preserve"><tspan
           y="691.73529"
           x="623.14935"
           id="tspan26184"
           sodipodi:role="line">john.doe@gmail.com</tspan></text>
      <text
         xml:space="preserve"
         style="font-size:5.21739149px;font-style:normal;font-variant:normal;font-weight:normal;font-stretch:normal;text-align:end;line-height:125%;letter-spacing:0px;word-spacing:0px;writing-mode:lr-tb;text-anchor:end;fill:#000000;fill-opacity:1;stroke:none;display:inline;font-family:Cantarell;-inkscape-font-specification:Cantarell"
         x="624.2674"
         y="704.77875"
         id="text26186"
         sodipodi:linespacing="125%"><tspan
           sodipodi:role="line"
           id="tspan26188"
           x="624.2674"
           y="704.77875">Use for</tspan></text>
      <text
         sodipodi:linespacing="125%"
         id="text26190"
         y="704.77875"
         x="635.07471"
         style="font-size:5.21739149px;font-style:normal;font-variant:normal;font-weight:normal;font-stretch:normal;text-align:start;line-height:125%;letter-spacing:0px;word-spacing:0px;writing-mode:lr-tb;text-anchor:start;fill:#000000;fill-opacity:1;stroke:none;display:inline;font-family:Cantarell;-inkscape-font-specification:Cantarell"
         xml:space="preserve"><tspan
           y="704.77875"
           x="635.07471"
           id="tspan26192"
           sodipodi:role="line">Mail</tspan></text>
      <g
         style="display:inline"
         transform="matrix(0.37267081,0,0,0.37267081,483.7596,556.2081)"
         id="g3921">
        <rect
           transform="scale(-1,-1)"
           y="-405.36218"
           x="-594.42188"
           height="24"
           width="74"
           id="rect3923"
           style="fill:#d3d7cf;fill-opacity:1;stroke:none;stroke-width:1;stroke-linecap:round;stroke-miterlimit:4;stroke-opacity:1;stroke-dasharray:none" />
        <rect
           transform="scale(-1,-1)"
           style="fill:#000000;fill-opacity:1;stroke:none;stroke-width:1;stroke-linecap:round;stroke-miterlimit:4;stroke-opacity:1;stroke-dasharray:none"
           id="rect3925"
           width="36"
           height="24"
           x="-556.42188"
           y="-405.36218" />
      </g>
      <text
         xml:space="preserve"
         style="font-size:5.21739149px;font-style:normal;font-variant:normal;font-weight:normal;font-stretch:normal;text-align:start;line-height:125%;letter-spacing:0px;word-spacing:0px;writing-mode:lr-tb;text-anchor:start;fill:#000000;fill-opacity:1;stroke:none;display:inline;font-family:Cantarell;-inkscape-font-specification:Cantarell"
         x="635.07471"
         y="715.9588"
         id="text28655"
         sodipodi:linespacing="125%"><tspan
           sodipodi:role="line"
           id="tspan28657"
           x="635.07471"
           y="715.9588">Calendar</tspan></text>
      <g
         id="g28659"
         transform="matrix(0.37267081,0,0,0.37267081,483.7596,567.38823)"
         style="display:inline">
        <rect
           style="fill:#d3d7cf;fill-opacity:1;stroke:none"
           id="rect28661"
           width="74"
           height="24"
           x="-594.42188"
           y="-405.36218"
           transform="scale(-1,-1)" />
        <rect
           y="-405.36218"
           x="-556.42188"
           height="24"
           width="36"
           id="rect28663"
           style="fill:#000000;fill-opacity:1;stroke:none"
           transform="scale(-1,-1)" />
      </g>
      <text
         sodipodi:linespacing="125%"
         id="text28673"
         y="727.13885"
         x="635.07471"
         style="font-size:5.21739149px;font-style:normal;font-variant:normal;font-weight:normal;font-stretch:normal;text-align:start;line-height:125%;letter-spacing:0px;word-spacing:0px;writing-mode:lr-tb;text-anchor:start;fill:#000000;fill-opacity:1;stroke:none;display:inline;font-family:Cantarell;-inkscape-font-specification:Cantarell"
         xml:space="preserve"><tspan
           y="727.13885"
           x="635.07471"
           id="tspan28675"
           sodipodi:role="line">Contacts</tspan></text>
      <g
         style="display:inline"
         transform="matrix(0.37267081,0,0,0.37267081,483.7596,578.56836)"
         id="g28677">
        <rect
           transform="scale(-1,-1)"
           y="-405.36218"
           x="-594.42188"
           height="24"
           width="74"
           id="rect28679"
           style="fill:#d3d7cf;fill-opacity:1;stroke:none" />
        <rect
           transform="scale(-1,-1)"
           style="fill:#000000;fill-opacity:1;stroke:none"
           id="rect28681"
           width="36"
           height="24"
           x="-556.42188"
           y="-405.36218" />
      </g>
      <text
         xml:space="preserve"
         style="font-size:5.21739149px;font-style:normal;font-variant:normal;font-weight:normal;font-stretch:normal;text-align:start;line-height:125%;letter-spacing:0px;word-spacing:0px;writing-mode:lr-tb;text-anchor:start;fill:#000000;fill-opacity:1;stroke:none;display:inline;font-family:Cantarell;-inkscape-font-specification:Cantarell"
         x="635.07471"
         y="738.31891"
         id="text28691"
         sodipodi:linespacing="125%"><tspan
           sodipodi:role="line"
           id="tspan28693"
           x="635.07471"
           y="738.31891">Chat</tspan></text>
      <g
         id="g28695"
         transform="matrix(0.37267081,0,0,0.37267081,483.7596,589.74849)"
         style="display:inline">
        <rect
           style="fill:#d3d7cf;fill-opacity:1;stroke:none"
           id="rect28697"
           width="74"
           height="24"
           x="-594.42188"
           y="-405.36218"
           transform="scale(-1,-1)" />
        <rect
           y="-405.36218"
           x="-556.42188"
           height="24"
           width="36"
           id="rect28699"
           style="fill:#000000;fill-opacity:1;stroke:none"
           transform="scale(-1,-1)" />
      </g>
      <text
         sodipodi:linespacing="125%"
         id="text28709"
         y="749.49896"
         x="635.07471"
         style="font-size:5.21739149px;font-style:normal;font-variant:normal;font-weight:normal;font-stretch:normal;text-align:start;line-height:125%;letter-spacing:0px;word-spacing:0px;writing-mode:lr-tb;text-anchor:start;fill:#000000;fill-opacity:1;stroke:none;display:inline;font-family:Cantarell;-inkscape-font-specification:Cantarell"
         xml:space="preserve"><tspan
           y="749.49896"
           x="635.07471"
           id="tspan28711"
           sodipodi:role="line">Documents</tspan></text>
      <g
         style="display:inline"
         transform="matrix(0.37267081,0,0,0.37267081,483.7596,600.92862)"
         id="g28713">
        <rect
           transform="scale(-1,-1)"
           y="-405.36218"
           x="-594.42188"
           height="24"
           width="74"
           id="rect28715"
           style="fill:#d3d7cf;fill-opacity:1;stroke:none" />
        <rect
           transform="scale(-1,-1)"
           style="fill:#000000;fill-opacity:1;stroke:none"
           id="rect28717"
           width="36"
           height="24"
           x="-556.42188"
           y="-405.36218" />
      </g>
      <text
         xml:space="preserve"
         style="font-size:5.21739149px;font-style:normal;font-variant:normal;font-weight:bold;font-stretch:normal;text-align:center;line-height:125%;letter-spacing:0px;word-spacing:0px;writing-mode:lr-tb;text-anchor:middle;fill:#ffffff;fill-opacity:1;stroke:none;font-family:Cantarell;-inkscape-font-specification:Cantarell Bold"
         x="684.04102"
         y="704.66602"
         id="text28760"
         sodipodi:linespacing="125%"><tspan
           sodipodi:role="line"
           id="tspan28762"
           x="684.04102"
           y="704.66602">ON</tspan></text>
      <text
         sodipodi:linespacing="125%"
         id="text28764"
         y="715.84607"
         x="684.04102"
         style="font-size:5.21739149px;font-style:normal;font-variant:normal;font-weight:bold;font-stretch:normal;text-align:center;line-height:125%;letter-spacing:0px;word-spacing:0px;writing-mode:lr-tb;text-anchor:middle;fill:#ffffff;fill-opacity:1;stroke:none;font-family:Cantarell;-inkscape-font-specification:Cantarell Bold"
         xml:space="preserve"><tspan
           y="715.84607"
           x="684.04102"
           id="tspan28766"
           sodipodi:role="line">ON</tspan></text>
      <text
         xml:space="preserve"
         style="font-size:5.21739149px;font-style:normal;font-variant:normal;font-weight:bold;font-stretch:normal;text-align:center;line-height:125%;letter-spacing:0px;word-spacing:0px;writing-mode:lr-tb;text-anchor:middle;fill:#ffffff;fill-opacity:1;stroke:none;font-family:Cantarell;-inkscape-font-specification:Cantarell Bold"
         x="684.04102"
         y="727.02612"
         id="text28768"
         sodipodi:linespacing="125%"><tspan
           sodipodi:role="line"
           id="tspan28770"
           x="684.04102"
           y="727.02612">ON</tspan></text>
      <text
         sodipodi:linespacing="125%"
         id="text28772"
         y="738.20618"
         x="684.04102"
         style="font-size:5.21739149px;font-style:normal;font-variant:normal;font-weight:bold;font-stretch:normal;text-align:center;line-height:125%;letter-spacing:0px;word-spacing:0px;writing-mode:lr-tb;text-anchor:middle;fill:#ffffff;fill-opacity:1;stroke:none;font-family:Cantarell;-inkscape-font-specification:Cantarell Bold"
         xml:space="preserve"><tspan
           y="738.20618"
           x="684.04102"
           id="tspan28774"
           sodipodi:role="line">ON</tspan></text>
      <text
         xml:space="preserve"
         style="font-size:5.21739149px;font-style:normal;font-variant:normal;font-weight:bold;font-stretch:normal;text-align:center;line-height:125%;letter-spacing:0px;word-spacing:0px;writing-mode:lr-tb;text-anchor:middle;fill:#ffffff;fill-opacity:1;stroke:none;font-family:Cantarell;-inkscape-font-specification:Cantarell Bold"
         x="684.04102"
         y="749.38623"
         id="text28776"
         sodipodi:linespacing="125%"><tspan
           sodipodi:role="line"
           id="tspan28778"
           x="684.04102"
           y="749.38623">ON</tspan></text>
      <path
         style="color:#000000;color-interpolation:sRGB;color-interpolation-filters:linearRGB;fill:none;stroke:#000000;stroke-width:0.3726708;stroke-opacity:1;marker:none;visibility:visible;display:inline;overflow:visible;enable-background:accumulate;clip-rule:nonzero"
         d="m 527.89196,749.24446 67.08075,0"
         id="path6614"
         inkscape:connector-curvature="0" />
    </g>
  </g>
</svg>
