<svg xmlns="http://www.w3.org/2000/svg" xmlns:osb="http://www.openswatchbook.org/uri/2009/osb" xmlns:svg="http://www.w3.org/2000/svg" xmlns:xlink="http://www.w3.org/1999/xlink" id="svg10075" width="840" height="500" version="1.1"><defs id="defs10077"><linearGradient id="RHEL7" osb:paint="gradient"><stop id="stop13323" offset="0" style="stop-color:#a3dbe8;stop-opacity:1"/><stop id="stop13325" offset="1" style="stop-color:#a3dbe8;stop-opacity:1"/></linearGradient><linearGradient id="GNOME" osb:paint="gradient"><stop id="stop11074" offset="0" style="stop-color:#eeedec;stop-opacity:1"/><stop id="stop11076" offset="1" style="stop-color:#eeedec;stop-opacity:1"/></linearGradient><linearGradient id="BLANK" osb:paint="gradient"><stop id="stop7012" offset="0" style="stop-color:#eeedec;stop-opacity:0"/><stop id="stop7014" offset="1" style="stop-color:#eeedec;stop-opacity:0"/></linearGradient><linearGradient id="linearGradient7064" x1="-18.338" x2="713.429" y1="490.549" y2="490.549" gradientTransform="matrix(1.1834379,0,0,0.896461,5.7016703,415.60382)" gradientUnits="userSpaceOnUse" xlink:href="#GNOME"/><filter id="filter5601" width="1.206" height="1.131" x="-.103" y="-.065" color-interpolation-filters="sRGB"><feGaussianBlur id="feGaussianBlur5603" stdDeviation=".611"/></filter><linearGradient id="linearGradient5885" x1="29.09" x2="33.971" y1="11.773" y2="9.709" gradientUnits="userSpaceOnUse" xlink:href="#linearGradient5716"/><linearGradient id="linearGradient5716"><stop id="stop5718" offset="0" style="stop-color:#000;stop-opacity:1"/><stop id="stop5720" offset="1" style="stop-color:#484848;stop-opacity:1"/></linearGradient><linearGradient id="linearGradient17441" x1="29.09" x2="33.971" y1="11.773" y2="9.709" gradientUnits="userSpaceOnUse" xlink:href="#linearGradient5716"/><linearGradient id="linearGradient17443"><stop id="stop17445" offset="0" style="stop-color:#000;stop-opacity:1"/><stop id="stop17447" offset="1" style="stop-color:#484848;stop-opacity:1"/></linearGradient><linearGradient id="linearGradient17453" x1="29.09" x2="33.971" y1="11.773" y2="9.709" gradientUnits="userSpaceOnUse" xlink:href="#linearGradient5716"/><linearGradient id="linearGradient17455" x1="29.09" x2="33.971" y1="11.773" y2="9.709" gradientUnits="userSpaceOnUse" xlink:href="#linearGradient5716"/><linearGradient id="linearGradient1244" x1="29.09" x2="33.971" y1="11.773" y2="9.709" gradientUnits="userSpaceOnUse" xlink:href="#linearGradient5716"/><linearGradient id="linearGradient1246" x1="29.09" x2="33.971" y1="11.773" y2="9.709" gradientUnits="userSpaceOnUse" xlink:href="#linearGradient5716"/></defs><metadata id="metadata10080"/><g id="layer1" transform="translate(0,-992.3622)"><rect id="background" width="866" height="656" x="-16" y="855.362" style="fill:url(#BLANK)"/></g><g id="layer2" transform="translate(0,-540)"><g id="g11020" transform="translate(-81,-139.36217)"><circle id="path11014" cx="120" cy="278" r="17" transform="translate(2,453.36217)" style="color:#000;display:inline;overflow:visible;visibility:visible;fill:#000;fill-opacity:.27522936;stroke:none;stroke-width:1.06985807;marker:none;enable-background:accumulate"/><text id="text11016" x="122.293" y="736.362" xml:space="preserve" style="font-style:normal;font-variant:normal;font-weight:700;font-stretch:normal;line-height:0%;font-family:Cantarell;-inkscape-font-specification:'Cantarell Bold';text-align:center;letter-spacing:0;word-spacing:0;writing-mode:lr-tb;text-anchor:middle;fill:#fff;fill-opacity:1;stroke:none"><tspan id="tspan11018" x="122.293" y="736.362" style="font-size:14px;line-height:1.25">3</tspan></text></g><path style="fill:#fff;fill-opacity:1;stroke:#000;stroke-width:5.36666679;stroke-miterlimit:4;stroke-opacity:1" id="path5430" d="m 141.41664,1245.6834 h 561.16668 c 5.94626,0 10.73333,4.8289 10.73333,10.8272 v 329.4895 H 702.58332 141.41664 130.68331 v -329.4895 c 0,-5.9983 4.78707,-10.8272 10.73333,-10.8272 z"/><path style="fill:none;stroke:#000;stroke-width:2.72237611;stroke-linecap:butt;stroke-linejoin:miter;stroke-miterlimit:4;stroke-dasharray:none;stroke-opacity:1" id="path5361" d="m 132.16207,1295.6167 c 570.10453,0 580.39987,0 580.39987,0"/><g style="fill:#0c0000;fill-opacity:1" id="g5363" transform="matrix(1.262736,0,0,1.262736,678.32655,1261.9854)"><g style="fill:#0c0000;fill-opacity:1" id="g5371" transform="translate(-60,-518)"><g style="display:inline;fill:#0c0000;fill-opacity:1" id="g5373" transform="translate(19,-242)"><path style="color:#bebebe;font-style:normal;font-variant:normal;font-weight:400;font-stretch:normal;font-size:xx-small;line-height:normal;font-family:'Andale Mono';-inkscape-font-specification:'Andale Mono';text-indent:0;text-align:start;text-decoration:none;text-decoration-line:none;letter-spacing:normal;word-spacing:normal;text-transform:none;writing-mode:lr-tb;direction:ltr;text-anchor:start;display:inline;overflow:visible;visibility:visible;fill:#0c0000;fill-opacity:1;fill-rule:nonzero;stroke:none;stroke-width:1.78124988;marker:none;enable-background:new" id="path5375" d="m 45,764 h 1 c 0.01037,-1.2e-4 0.02079,-4.6e-4 0.03125,0 0.254951,0.0112 0.50987,0.12858 0.6875,0.3125 L 49,766.59375 51.3125,764.3125 C 51.578125,764.082 51.759172,764.007 52,764 h 1 v 1 c 0,0.28647 -0.03434,0.55065 -0.25,0.75 l -2.28125,2.28125 2.25,2.25 C 52.906938,770.46942 52.999992,770.7347 53,771 v 1 h -1 c -0.265301,-10e-6 -0.530586,-0.0931 -0.71875,-0.28125 L 49,769.4375 46.71875,771.71875 C 46.530586,771.90694 46.26529,772 46,772 h -1 v -1 c -3e-6,-0.26529 0.09306,-0.53058 0.28125,-0.71875 l 2.28125,-2.25 L 45.28125,765.75 C 45.070508,765.55537 44.97809,765.28075 45,765 Z"/></g></g></g><text style="font-style:normal;font-variant:normal;font-weight:700;font-stretch:normal;font-size:32.20000076px;line-height:0%;font-family:Cantarell;-inkscape-font-specification:'Cantarell Bold';text-align:center;letter-spacing:0;word-spacing:0;writing-mode:lr-tb;text-anchor:middle;fill:#000;fill-opacity:1;stroke:none;stroke-width:2.6833334" id="text12012" x="428" y="1274.999" xml:space="preserve"><tspan style="font-size:13.99999905px;line-height:1.25;stroke-width:2.6833334" id="tspan12014" x="428" y="1274.999">Online Accounts</tspan></text><rect id="rect884" width="484.757" height="169.234" x="189.797" y="1416.765" style="color:#000;overflow:visible;opacity:1;vector-effect:none;fill:none;fill-opacity:1;stroke:#000;stroke-width:1;stroke-opacity:1"/><g style="display:inline" id="default-pointer-c" transform="matrix(2.7589319,0,0,2.7589319,485.15811,1476.7641)"><path style="color:#000;display:block;overflow:visible;visibility:visible;opacity:.6;fill:#000;fill-opacity:1;fill-rule:nonzero;stroke:#000;stroke-width:1;stroke-linecap:butt;stroke-linejoin:miter;stroke-miterlimit:10;stroke-dasharray:none;stroke-dashoffset:0;stroke-opacity:1;marker:none;filter:url(#filter5601);enable-background:accumulate" id="path5567" d="M 27.135224,2.8483222 V 19.288556 l 3.712311,-3.623922 2.12132,4.331029 c 0.519598,1.171377 3.220861,0.229524 2.452777,-1.336875 l -2.099224,-4.496756 h 4.684582 z"/><path style="color:#000;display:block;overflow:visible;visibility:visible;fill:url(#linearGradient17453);fill-opacity:1;fill-rule:nonzero;stroke:#fff;stroke-width:1;stroke-linecap:butt;stroke-linejoin:miter;stroke-miterlimit:10;stroke-dasharray:none;stroke-dashoffset:0;stroke-opacity:1;marker:none;enable-background:accumulate" id="path5565" d="M 26.604893,2.3179921 V 18.758225 l 3.712311,-3.623922 2.12132,4.331029 c 0.519598,1.171377 3.220861,0.229524 2.452777,-1.336875 l -2.099224,-4.496756 h 4.684582 z"/><path style="color:#000;display:block;overflow:visible;visibility:visible;fill:url(#linearGradient17455);fill-opacity:1;fill-rule:nonzero;stroke:#fff;stroke-width:1;stroke-linecap:butt;stroke-linejoin:miter;stroke-miterlimit:10;stroke-dasharray:none;stroke-dashoffset:0;stroke-opacity:1;marker:none;enable-background:accumulate" id="path6242" d="M 26.604893,2.3179921 V 18.758225 l 3.712311,-3.623922 2.12132,4.331029 c 0.519598,1.171377 3.220861,0.229524 2.452777,-1.336875 l -2.099224,-4.496756 h 4.684582 z"/></g><g style="display:inline" id="g4705" transform="translate(46.922014,743.97752)"><rect style="color:#bebebe;display:inline;overflow:visible;visibility:visible;fill:none;stroke:none;stroke-width:1;marker:none;enable-background:new" id="rect10837-5-8-1" width="16" height="16" x="-116" y="518" transform="scale(-1,1)"/><path style="color:#bebebe;font-style:normal;font-variant:normal;font-weight:400;font-stretch:normal;font-size:medium;line-height:normal;font-family:'Andale Mono';-inkscape-font-specification:'Andale Mono';text-indent:0;text-align:start;text-decoration:none;text-decoration-line:none;letter-spacing:normal;word-spacing:normal;text-transform:none;writing-mode:lr-tb;direction:ltr;text-anchor:start;display:inline;overflow:visible;visibility:visible;fill:#000;fill-opacity:1;fill-rule:nonzero;stroke:none;stroke-width:1.78124988;marker:none;enable-background:new" id="path10839-9-9-5" d="m 112.01352,520 h -1 c -0.0104,-1.2e-4 -0.0208,-4.6e-4 -0.0313,0 -0.25495,0.0112 -0.50987,0.12858 -0.6875,0.3125 l -6.29767,5.71875 6.29772,5.71875 c 0.18816,0.18819 0.45346,0.28125 0.71875,0.28125 h 1 v -1 c 0,-0.26529 -0.0931,-0.53058 -0.28125,-0.71875 l -4.82897,-4.28125 4.82897,-4.28125 c 0.21074,-0.19463 0.30316,-0.46925 0.28125,-0.75 z"/></g><rect style="color:#000;display:inline;overflow:visible;visibility:visible;fill:none;stroke:#000;stroke-width:.99999994;stroke-miterlimit:4;stroke-dasharray:none;stroke-opacity:1;marker:none;enable-background:accumulate" id="rect15386" width="32" height="32" x="139.53" y="1254.469" rx="4" ry="4"/><rect id="rect977" width="7.071" height="121.622" x="696.379" y="1306.488" rx="3.536" ry="3.536" style="opacity:1;vector-effect:none;fill:#000;fill-opacity:1;stroke:none;stroke-width:20;stroke-linecap:butt;stroke-linejoin:miter;stroke-miterlimit:4;stroke-dasharray:none;stroke-dashoffset:0;stroke-opacity:1;marker:none;paint-order:normal"/><rect style="color:#000;overflow:visible;opacity:1;vector-effect:none;fill:none;fill-opacity:1;stroke:#000;stroke-width:1;stroke-opacity:1" id="rect979" width="40.956" height="39.882" x="214.061" y="1437.271"/><rect id="rect981" width="40.956" height="39.882" x="214.061" y="1497.271" style="color:#000;overflow:visible;opacity:1;vector-effect:none;fill:none;fill-opacity:1;stroke:#000;stroke-width:1;stroke-opacity:1"/><rect style="color:#000;overflow:visible;opacity:1;vector-effect:none;fill:none;fill-opacity:1;stroke:#000;stroke-width:1;stroke-opacity:1" id="rect983" width="40.956" height="28.728" x="214.061" y="1557.272"/><rect id="rect985" width="178.191" height="19.799" x="270.115" y="1446.675" style="opacity:1;vector-effect:none;fill:#d3d7cf;fill-opacity:1;stroke:none;stroke-width:20;stroke-linecap:butt;stroke-linejoin:miter;stroke-miterlimit:4;stroke-dasharray:none;stroke-dashoffset:0;stroke-opacity:1;marker:none;paint-order:normal"/><rect style="opacity:1;vector-effect:none;fill:#d3d7cf;fill-opacity:1;stroke:none;stroke-width:20;stroke-linecap:butt;stroke-linejoin:miter;stroke-miterlimit:4;stroke-dasharray:none;stroke-dashoffset:0;stroke-opacity:1;marker:none;paint-order:normal" id="rect987" width="127.279" height="19.799" x="270.115" y="1505.365"/><rect id="rect989" width="203.647" height="14.47" x="270.115" y="1565.469" style="opacity:1;vector-effect:none;fill:#d3d7cf;fill-opacity:1;stroke:none;stroke-width:20;stroke-linecap:butt;stroke-linejoin:miter;stroke-miterlimit:4;stroke-dasharray:none;stroke-dashoffset:0;stroke-opacity:1;marker:none;paint-order:normal"/><flowRoot style="font-style:normal;font-weight:400;font-size:40px;line-height:1.25;font-family:sans-serif;letter-spacing:0;word-spacing:0;fill:#000;fill-opacity:1;stroke:none" id="flowRoot1005" transform="matrix(2.6833333,0,0,2.6833333,-1275.5101,-1072.8539)" xml:space="preserve"><flowRegion id="flowRegion1007"><rect id="rect1009" width="488" height="122" x="186" y="199"/></flowRegion><flowPara id="flowPara1011"/></flowRoot><text id="text1074" x="192" y="1403" xml:space="preserve" style="font-style:normal;font-variant:normal;font-weight:400;font-stretch:normal;font-size:14.66666794px;line-height:1.25;font-family:sans-serif;-inkscape-font-specification:'sans-serif, Normal';font-variant-ligatures:normal;font-variant-caps:normal;font-variant-numeric:normal;font-feature-settings:normal;text-align:start;letter-spacing:0;word-spacing:0;writing-mode:lr-tb;text-anchor:start;fill:#000;fill-opacity:1;stroke:none;stroke-width:.99999994"><tspan style="stroke-width:.99999994" id="tspan1072" x="192" y="1403">Add an account</tspan></text><g style="display:inline;stroke-width:.80000001" id="g3922" transform="matrix(2.5,0,0,2.5,-155.93914,436.27124)"><rect style="color:#bebebe;display:inline;overflow:visible;visibility:visible;fill:none;stroke:none;stroke-width:.80000001;marker:none" id="rect2941" width="16" height="16" x="-194" y="20" transform="rotate(-90)"/><path style="color:#000;display:inline;overflow:visible;visibility:visible;fill:#babdb6;fill-opacity:1;fill-rule:nonzero;stroke:none;stroke-width:.40000001;marker:none;enable-background:new" id="rect14063" d="M 22.116732,178 C 20.946094,178 20,178.94979 20,180.125 v 11.75 c 0,1.17521 0.946094,2.125 2.116732,2.125 h 6.910506 v -6 h -0.99611 v -2 h 0.99611 v -1.0625 c 0,-1.84445 1.374066,-2.88912 3.175096,-2.9375 h 1.77432 v 2 H 32.88716 c -0.625856,0 -0.902724,0.22291 -0.902724,0.90625 V 186 h 1.712062 l -0.217898,2 h -1.494164 v 6 h 1.898832 C 35.053906,194 36,193.05021 36,191.875 v -11.75 C 36,178.94979 35.053906,178 33.883268,178 Z"/></g><path style="color:#000;display:inline;overflow:visible;visibility:visible;fill:#babdb6;fill-opacity:1;fill-rule:nonzero;stroke:none;stroke-width:.49999997;marker:none;enable-background:new" id="path14750" d="m -94.36077,823.29363 -4.452965,-0.0161 c -3.138825,1.63525 -3.608415,5.71553 -2.578065,9.45277 1.36187,4.93932 4.083657,8.40395 7.734144,7.26542 5.092108,-1.58856 5.241113,-5.74711 3.671739,-10.62463 -0.830009,-2.57976 -2.369518,-4.65822 -4.374853,-6.07402 z m 12.421472,7.71456 c 0,2.19931 -0.894865,4.07649 -1.874926,5.54669 v 0.0786 l -0.234523,0.15617 c 0,0 -0.636862,0.74801 -1.406201,1.48437 -0.768238,0.73649 -1.953064,1.7187 -1.953064,1.7187 -0.964095,0.72458 -1.484286,1.68245 -1.484286,2.73423 0,1.05541 0.670619,2.00936 1.640563,2.73429 0,0 1.966911,1.20517 3.046764,2.10935 1.079398,0.90471 2.343704,2.10928 2.343704,2.10928 1.461961,1.37465 2.421762,3.56524 2.421762,6.01542 0,2.1102 -0.669116,4.02371 -1.796814,5.39044 l -1.718701,2.18745 h 10.702743 c 2.926551,0 5.312356,-2.37442 5.312356,-5.31235 v -29.37402 c 0,-2.9379 -2.385805,-5.3123 -5.312356,-5.3123 -1.434564,-0.0134 -4.553536,0.003 -4.553536,0.003 l -0.03837,2.464 -6.414723,0.71948 c 0.93863,1.63007 1.295782,3.25706 1.319878,4.5464 z m -24.999192,6.09358 v 14.06201 c 4.34099,-2.90643 12.108995,-2.96866 12.108995,-2.96866 0,0 0.03354,-0.0469 0,-0.0786 -3.114384,-2.39415 -1.796813,-5.15624 -1.796813,-5.15624 -4.815402,0.41026 -7.016572,-1.38709 -10.312182,-5.85914 z m 12.655885,13.82767 c -4.326311,0.24311 -9.893045,2.03421 -9.999685,6.32789 0,2.56833 1.67199,4.89633 4.06233,5.93731 0,0 0.0859,0.055 0.15617,0.0786 h 0.07862 11.327745 c 0,0 0.02147,-0.1119 0.07862,-0.15617 6.127821,-5.42329 1.500386,-8.5677 -3.749905,-12.10895 -0.09526,-0.0633 -0.234523,-0.0786 -0.234523,-0.0786 -0.54748,-0.0215 -1.100676,-0.0344 -1.718675,0 z"/><path style="display:inline;fill:#fff;fill-opacity:1;stroke:#000;stroke-width:5.36666679;stroke-miterlimit:4;stroke-opacity:1" id="path5430-2" d="M 83.416662,568.68327 H 776.58334 c 5.9463,0 10.73334,4.78707 10.73334,10.73333 v 432.6333 H 776.58334 83.416662 72.683329 V 579.4166 c 0,-5.94626 4.787067,-10.73333 10.733333,-10.73333 z"/><path id="path5361-7" d="M 74.162087,618.61661 H 786.56199" style="display:inline;fill:none;stroke:#000;stroke-width:2.72237611;stroke-linecap:butt;stroke-linejoin:miter;stroke-miterlimit:4;stroke-dasharray:none;stroke-opacity:1"/><path style="color:#bebebe;font-style:normal;font-variant:normal;font-weight:400;font-stretch:normal;font-size:xx-small;line-height:normal;font-family:'Andale Mono';-inkscape-font-specification:'Andale Mono';text-indent:0;text-align:start;text-decoration:none;text-decoration-line:none;letter-spacing:normal;word-spacing:normal;text-transform:none;writing-mode:lr-tb;direction:ltr;text-anchor:start;display:inline;overflow:visible;visibility:visible;fill:#0c0000;fill-opacity:1;fill-rule:nonzero;stroke:none;stroke-width:3.58466077;marker:none;enable-background:new" id="path5375-0" d="m 754.37986,585.03757 h 2.01245 c 0.0215,-2.4e-4 0.0419,-9.4e-4 0.0628,0 0.51308,0.0215 1.02608,0.25867 1.38355,0.62889 l 4.59089,4.59086 4.65376,-4.59086 c 0.53454,-0.46387 0.89891,-0.6148 1.38355,-0.62889 h 2.01245 v 2.01245 c 0,0.57648 -0.0692,1.10813 -0.50313,1.50932 l -4.59086,4.59088 4.52799,4.528 c 0.3787,0.37867 0.56597,0.91254 0.566,1.44645 v 2.01242 h -2.01245 c -0.5339,0 -1.06778,-0.1873 -1.44645,-0.566 l -4.59086,-4.59089 -4.59089,4.59089 c -0.37867,0.37873 -0.91257,0.566 -1.44645,0.566 h -2.01245 v -2.01242 c 0,-0.53391 0.1873,-1.06778 0.56603,-1.44645 l 4.59086,-4.528 -4.59086,-4.59088 c -0.42413,-0.39169 -0.61011,-0.94435 -0.56603,-1.50932 z"/><text style="font-style:normal;font-variant:normal;font-weight:700;font-stretch:normal;font-size:32.20000076px;line-height:0%;font-family:Cantarell;-inkscape-font-specification:'Cantarell Bold';text-align:center;letter-spacing:0;word-spacing:0;writing-mode:lr-tb;text-anchor:middle;display:inline;fill:#000;fill-opacity:1;stroke:none;stroke-width:2.6833334" id="text12012-9" x="520" y="598" xml:space="preserve"><tspan id="tspan12014-3" x="520" y="598" style="font-size:13.99999905px;line-height:1.25;stroke-width:2.6833334">Online Accounts</tspan></text><rect id="rect10837-5-8-1-6" width="16" height="16" x="-103.922" y="584.978" transform="scale(-1,1)" style="color:#bebebe;display:inline;overflow:visible;visibility:visible;fill:none;stroke:none;stroke-width:.99999994;marker:none;enable-background:new"/><path id="path10839-9-9-5-0" d="m 99.935584,586.97746 h -0.999998 c -0.01073,-1.1e-4 -0.02147,-4.6e-4 -0.0314,0 -0.254917,0.0107 -0.50986,0.12853 -0.687497,0.3125 l -6.297676,5.71875 6.29773,5.71874 c 0.188102,0.1881 0.453456,0.28127 0.718758,0.28127 h 0.999997 v -1 c 0,-0.26538 -0.09311,-0.5306 -0.28124,-0.71876 l -4.82898,-4.28125 4.82898,-4.28124 c 0.210642,-0.19454 0.303136,-0.46926 0.28124,-0.75001 z" style="color:#bebebe;font-style:normal;font-variant:normal;font-weight:400;font-stretch:normal;font-size:medium;line-height:normal;font-family:'Andale Mono';-inkscape-font-specification:'Andale Mono';text-indent:0;text-align:start;text-decoration:none;text-decoration-line:none;letter-spacing:normal;word-spacing:normal;text-transform:none;writing-mode:lr-tb;direction:ltr;text-anchor:start;display:inline;overflow:visible;visibility:visible;fill:#000;fill-opacity:1;fill-rule:nonzero;stroke:none;stroke-width:1.78124988;marker:none;enable-background:new"/><rect style="color:#000;display:inline;overflow:visible;visibility:visible;fill:none;stroke:#000;stroke-width:.99999994;stroke-miterlimit:4;stroke-dasharray:none;stroke-opacity:1;marker:none;enable-background:accumulate" id="rect15386-6" width="32" height="32" x="80.53" y="577.469" rx="4" ry="4"/><text id="text946" x="178" y="598" xml:space="preserve" style="font-style:normal;font-variant:normal;font-weight:700;font-stretch:normal;font-size:32.20000076px;line-height:0%;font-family:Cantarell;-inkscape-font-specification:'Cantarell Bold';text-align:center;letter-spacing:0;word-spacing:0;writing-mode:lr-tb;text-anchor:middle;display:inline;fill:#000;fill-opacity:1;stroke:none;stroke-width:2.6833334"><tspan style="font-size:13.99999905px;line-height:1.25;stroke-width:2.6833334" id="tspan944" x="178" y="598">Settings</tspan></text><rect style="color:#bebebe;display:inline;overflow:visible;visibility:visible;fill:none;stroke:none;stroke-width:.99999994;marker:none;enable-background:new" id="rect948" width="16" height="16" x="-268.922" y="584.978" transform="scale(-1,1)"/><rect id="rect952" width="32" height="32" x="245.53" y="577.469" rx="4" ry="4" style="color:#000;display:inline;overflow:visible;visibility:visible;fill:none;stroke:#000;stroke-width:.99999994;stroke-miterlimit:4;stroke-dasharray:none;stroke-opacity:1;marker:none;enable-background:accumulate"/><g id="g7352" transform="translate(233.9223,309.97744)" style="display:inline;enable-background:new"><rect style="color:#bebebe;display:inline;overflow:visible;visibility:visible;fill:none;stroke:none;stroke-width:1;marker:none" id="rect7354" width="16" height="16" x="20" y="276"/><rect style="color:#bebebe;display:inline;overflow:visible;visibility:visible;fill:#2e3436;fill-opacity:1;stroke:none;stroke-width:1;marker:none" id="rect7356" width="10" height="2" x="23" y="279"/><rect style="color:#bebebe;display:inline;overflow:visible;visibility:visible;fill:#2e3436;fill-opacity:1;stroke:none;stroke-width:1;marker:none" id="rect7358" width="10" height="2" x="23" y="283"/><rect style="color:#bebebe;display:inline;overflow:visible;visibility:visible;fill:#2e3436;fill-opacity:1;stroke:none;stroke-width:1;marker:none" id="rect7360" width="10" height="2" x="23" y="287"/></g><rect style="opacity:1;vector-effect:none;fill:#000;fill-opacity:1;stroke:none;stroke-width:15.99999905;stroke-linecap:round;stroke-linejoin:round;stroke-miterlimit:4;stroke-dasharray:none;stroke-dashoffset:0;stroke-opacity:1;marker:none;marker-start:none;marker-mid:none;marker-end:none;paint-order:normal" id="rect7822" width="212" height="46" x="74" y="661"/><text id="text7826" x="125.574" y="688" xml:space="preserve" style="font-style:normal;font-variant:normal;font-weight:400;font-stretch:normal;font-size:32.20000076px;line-height:0%;font-family:Cantarell;-inkscape-font-specification:Cantarell;text-align:start;letter-spacing:0;word-spacing:0;writing-mode:lr-tb;text-anchor:start;display:inline;fill:#fff;fill-opacity:1;stroke:none;stroke-width:2.6833334"><tspan style="font-style:normal;font-variant:normal;font-weight:400;font-stretch:normal;font-size:13.99999905px;line-height:1.25;font-family:Cantarell;-inkscape-font-specification:Cantarell;text-align:start;text-anchor:start;fill:#fff;stroke-width:2.6833334" id="tspan7824" x="125.574" y="688">Online Accounts</tspan></text><path style="opacity:1;vector-effect:none;fill:#fff;fill-opacity:1;stroke:#000;stroke-width:.99999994;stroke-linecap:round;stroke-linejoin:round;stroke-miterlimit:4;stroke-dasharray:none;stroke-dashoffset:0;stroke-opacity:1;marker:none;marker-start:none;marker-mid:none;marker-end:none;paint-order:normal" id="path7828" d="M 286.53042,567.46946 V 1010"/><rect style="opacity:1;vector-effect:none;fill:#070707;fill-opacity:1;stroke:none;stroke-width:.99999994;stroke-linecap:round;stroke-linejoin:round;stroke-miterlimit:4;stroke-dasharray:none;stroke-dashoffset:0;stroke-opacity:1;marker:none;marker-start:none;marker-mid:none;marker-end:none;paint-order:normal" id="rect7830" width="48" height="9" x="125" y="636"/><rect id="rect7832" width="48" height="9" x="125" y="726" style="opacity:1;vector-effect:none;fill:#070707;fill-opacity:1;stroke:none;stroke-width:.99999994;stroke-linecap:round;stroke-linejoin:round;stroke-miterlimit:4;stroke-dasharray:none;stroke-dashoffset:0;stroke-opacity:1;marker:none;marker-start:none;marker-mid:none;marker-end:none;paint-order:normal"/><rect style="opacity:1;vector-effect:none;fill:#070707;fill-opacity:1;stroke:none;stroke-width:.99999994;stroke-linecap:round;stroke-linejoin:round;stroke-miterlimit:4;stroke-dasharray:none;stroke-dashoffset:0;stroke-opacity:1;marker:none;marker-start:none;marker-mid:none;marker-end:none;paint-order:normal" id="rect7834" width="48" height="9" x="125" y="766"/><rect id="rect7836" width="77" height="9" x="185" y="766" style="opacity:1;vector-effect:none;fill:#070707;fill-opacity:1;stroke:none;stroke-width:.99999994;stroke-linecap:round;stroke-linejoin:round;stroke-miterlimit:4;stroke-dasharray:none;stroke-dashoffset:0;stroke-opacity:1;marker:none;marker-start:none;marker-mid:none;marker-end:none;paint-order:normal"/><circle style="opacity:1;vector-effect:none;fill:#c0bfbc;fill-opacity:1;stroke:none;stroke-width:.99999994;stroke-linecap:round;stroke-linejoin:round;stroke-miterlimit:4;stroke-dasharray:none;stroke-dashoffset:0;stroke-opacity:1;marker:none;marker-start:none;marker-mid:none;marker-end:none;paint-order:normal" id="path7840" cx="97.581" cy="641.036" r="11.419"/><circle id="circle7842" cx="97.581" cy="732.035" r="11.419" style="opacity:1;vector-effect:none;fill:#c0bfbc;fill-opacity:1;stroke:none;stroke-width:.99999994;stroke-linecap:round;stroke-linejoin:round;stroke-miterlimit:4;stroke-dasharray:none;stroke-dashoffset:0;stroke-opacity:1;marker:none;marker-start:none;marker-mid:none;marker-end:none;paint-order:normal"/><circle style="opacity:1;vector-effect:none;fill:#c0bfbc;fill-opacity:1;stroke:none;stroke-width:.99999994;stroke-linecap:round;stroke-linejoin:round;stroke-miterlimit:4;stroke-dasharray:none;stroke-dashoffset:0;stroke-opacity:1;marker:none;marker-start:none;marker-mid:none;marker-end:none;paint-order:normal" id="circle7844" cx="97.581" cy="770.035" r="11.419"/><text style="font-style:normal;font-variant:normal;font-weight:400;font-stretch:normal;font-size:21.33333397px;line-height:1.25;font-family:sans-serif;-inkscape-font-specification:'sans-serif, Normal';font-variant-ligatures:normal;font-variant-caps:normal;font-variant-numeric:normal;font-feature-settings:normal;text-align:center;letter-spacing:0;word-spacing:0;writing-mode:lr-tb;text-anchor:middle;opacity:1;vector-effect:none;fill:#000;fill-opacity:1;stroke:none;stroke-width:1px;stroke-linecap:butt;stroke-linejoin:miter;stroke-miterlimit:4;stroke-dasharray:none;stroke-dashoffset:0;stroke-opacity:1" id="text1050" x="420" y="1351" xml:space="preserve"><tspan id="tspan1048" x="420" y="1351">Connect to your data in the cloud</tspan></text><rect style="color:#000;overflow:visible;opacity:1;vector-effect:none;fill:none;fill-opacity:1;stroke:#000;stroke-width:1;stroke-opacity:1" id="rect1212" width="450.757" height="268.234" x="309.56" y="741.816"/><g id="g1220" transform="matrix(2.7589319,0,0,2.7589319,597.92114,801.81449)" style="display:inline"><path id="path1214" d="M 27.135224,2.8483222 V 19.288556 l 3.712311,-3.623922 2.12132,4.331029 c 0.519598,1.171377 3.220861,0.229524 2.452777,-1.336875 l -2.099224,-4.496756 h 4.684582 z" style="color:#000;display:block;overflow:visible;visibility:visible;opacity:.6;fill:#000;fill-opacity:1;fill-rule:nonzero;stroke:#000;stroke-width:1;stroke-linecap:butt;stroke-linejoin:miter;stroke-miterlimit:10;stroke-dasharray:none;stroke-dashoffset:0;stroke-opacity:1;marker:none;filter:url(#filter5601);enable-background:accumulate"/><path id="path1216" d="M 26.604893,2.3179921 V 18.758225 l 3.712311,-3.623922 2.12132,4.331029 c 0.519598,1.171377 3.220861,0.229524 2.452777,-1.336875 l -2.099224,-4.496756 h 4.684582 z" style="color:#000;display:block;overflow:visible;visibility:visible;fill:url(#linearGradient1244);fill-opacity:1;fill-rule:nonzero;stroke:#fff;stroke-width:1;stroke-linecap:butt;stroke-linejoin:miter;stroke-miterlimit:10;stroke-dasharray:none;stroke-dashoffset:0;stroke-opacity:1;marker:none;enable-background:accumulate"/><path id="path1218" d="M 26.604893,2.3179921 V 18.758225 l 3.712311,-3.623922 2.12132,4.331029 c 0.519598,1.171377 3.220861,0.229524 2.452777,-1.336875 l -2.099224,-4.496756 h 4.684582 z" style="color:#000;display:block;overflow:visible;visibility:visible;fill:url(#linearGradient1246);fill-opacity:1;fill-rule:nonzero;stroke:#fff;stroke-width:1;stroke-linecap:butt;stroke-linejoin:miter;stroke-miterlimit:10;stroke-dasharray:none;stroke-dashoffset:0;stroke-opacity:1;marker:none;enable-background:accumulate"/></g><rect style="opacity:1;vector-effect:none;fill:#000;fill-opacity:1;stroke:none;stroke-width:20;stroke-linecap:butt;stroke-linejoin:miter;stroke-miterlimit:4;stroke-dasharray:none;stroke-dashoffset:0;stroke-opacity:1;marker:none;paint-order:normal" id="rect1222" width="7.071" height="121.622" x="771.491" y="628.617" rx="3.536" ry="3.536"/><rect id="rect1224" width="40.956" height="39.882" x="326.824" y="882.322" style="color:#000;overflow:visible;opacity:1;vector-effect:none;fill:none;fill-opacity:1;stroke:#000;stroke-width:1;stroke-opacity:1"/><rect style="color:#000;overflow:visible;opacity:1;vector-effect:none;fill:none;fill-opacity:1;stroke:#000;stroke-width:1;stroke-opacity:1" id="rect1226" width="40.956" height="39.882" x="326.824" y="942.322"/><rect id="rect1228" width="40.956" height="9.728" x="326.824" y="1002.322" style="color:#000;overflow:visible;opacity:1;vector-effect:none;fill:none;fill-opacity:1;stroke:#000;stroke-width:1;stroke-opacity:1"/><rect style="opacity:1;vector-effect:none;fill:#d3d7cf;fill-opacity:1;stroke:none;stroke-width:20;stroke-linecap:butt;stroke-linejoin:miter;stroke-miterlimit:4;stroke-dasharray:none;stroke-dashoffset:0;stroke-opacity:1;marker:none;paint-order:normal" id="rect1230" width="178.191" height="19.799" x="382.878" y="891.725"/><rect id="rect1232" width="127.279" height="19.799" x="382.878" y="950.415" style="opacity:1;vector-effect:none;fill:#d3d7cf;fill-opacity:1;stroke:none;stroke-width:20;stroke-linecap:butt;stroke-linejoin:miter;stroke-miterlimit:4;stroke-dasharray:none;stroke-dashoffset:0;stroke-opacity:1;marker:none;paint-order:normal"/><text style="font-style:normal;font-variant:normal;font-weight:400;font-stretch:normal;font-size:14.66666794px;line-height:1.25;font-family:Cantarell;-inkscape-font-specification:Cantarell;font-variant-ligatures:normal;font-variant-caps:normal;font-variant-numeric:normal;font-feature-settings:normal;text-align:start;letter-spacing:0;word-spacing:0;writing-mode:lr-tb;text-anchor:start;fill:#000;fill-opacity:1;stroke:none;stroke-width:.99999994" id="text1238" x="311.763" y="728.051" xml:space="preserve"><tspan id="tspan1236" x="311.763" y="728.051" style="stroke-width:.99999994;-inkscape-font-specification:Cantarell;font-family:Cantarell;font-weight:400;font-style:normal;font-stretch:normal;font-variant:normal">Add an account</tspan></text><text id="text1242" x="532.763" y="676.05" xml:space="preserve" style="font-style:normal;font-variant:normal;font-weight:400;font-stretch:normal;font-size:21.33333397px;line-height:1.25;font-family:Cantarell;-inkscape-font-specification:Cantarell;font-variant-ligatures:normal;font-variant-caps:normal;font-variant-numeric:normal;font-feature-settings:normal;text-align:center;letter-spacing:0;word-spacing:0;writing-mode:lr-tb;text-anchor:middle;opacity:1;vector-effect:none;fill:#000;fill-opacity:1;stroke:none;stroke-width:1px;stroke-linecap:butt;stroke-linejoin:miter;stroke-miterlimit:4;stroke-dasharray:none;stroke-dashoffset:0;stroke-opacity:1"><tspan id="tspan1240" x="532.763" y="676.05">Connect to your data in the cloud</tspan></text><rect style="color:#000;overflow:visible;opacity:1;vector-effect:none;fill:none;fill-opacity:1;stroke:#000;stroke-width:1;stroke-opacity:1" id="rect1248" width="40.956" height="39.882" x="326.824" y="762.439"/><rect id="rect1250" width="40.956" height="39.882" x="326.824" y="822.439" style="color:#000;overflow:visible;opacity:1;vector-effect:none;fill:none;fill-opacity:1;stroke:#000;stroke-width:1;stroke-opacity:1"/><rect id="rect1252" width="178.191" height="19.799" x="382.878" y="771.843" style="opacity:1;vector-effect:none;fill:#d3d7cf;fill-opacity:1;stroke:none;stroke-width:20;stroke-linecap:butt;stroke-linejoin:miter;stroke-miterlimit:4;stroke-dasharray:none;stroke-dashoffset:0;stroke-opacity:1;marker:none;paint-order:normal"/><rect style="opacity:1;vector-effect:none;fill:#d3d7cf;fill-opacity:1;stroke:none;stroke-width:20;stroke-linecap:butt;stroke-linejoin:miter;stroke-miterlimit:4;stroke-dasharray:none;stroke-dashoffset:0;stroke-opacity:1;marker:none;paint-order:normal" id="rect1254" width="127.279" height="19.799" x="382.878" y="830.533"/><g id="g6301" transform="translate(-120.9999,206)" style="enable-background:new"><path style="color:#bebebe;display:inline;overflow:visible;visibility:visible;fill:#fff;fill-opacity:1;fill-rule:nonzero;stroke:none;stroke-width:1.99999976;marker:none;enable-background:accumulate" id="circle3296" d="M 101 137 A 4.0000017 4.0000017 0 0 0 97.369141 139.33398 A 2.9999998 2.9999998 0 0 0 96 139 A 2.9999998 2.9999998 0 0 0 93 142 A 2.9999998 2.9999998 0 0 0 93.181641 143.02344 A 2.5 2.5 0 0 0 91 145.5 A 2.5 2.5 0 0 0 93.5 148 L 104 148 A 3.0000013 3.0000013 0 0 0 107 145 A 3.0000013 3.0000013 0 0 0 104.83594 142.12109 A 4.0000017 4.0000017 0 0 0 105 141 A 4.0000017 4.0000017 0 0 0 101 137 z" transform="translate(120.9999,334)"/><rect id="rect3664" width="16" height="16" x="212" y="468" style="color:#bebebe;display:inline;overflow:visible;visibility:visible;fill:none;stroke:none;stroke-width:1.78100002;marker:none;enable-background:new"/></g></g></svg>