<?xml version="1.0" encoding="UTF-8" standalone="no"?>
<svg
   xmlns:dc="http://purl.org/dc/elements/1.1/"
   xmlns:cc="http://creativecommons.org/ns#"
   xmlns:rdf="http://www.w3.org/1999/02/22-rdf-syntax-ns#"
   xmlns:svg="http://www.w3.org/2000/svg"
   xmlns="http://www.w3.org/2000/svg"
   xmlns:xlink="http://www.w3.org/1999/xlink"
   xmlns:sodipodi="http://sodipodi.sourceforge.net/DTD/sodipodi-0.dtd"
   xmlns:inkscape="http://www.inkscape.org/namespaces/inkscape"
   height="500"
   id="svg10075"
   version="1.1"
   width="840"
   inkscape:version="0.48.3.1 r9886"
   sodipodi:docname="goa5.svg">
  <sodipodi:namedview
     pagecolor="#ffffff"
     bordercolor="#666666"
     borderopacity="1"
     objecttolerance="10"
     gridtolerance="10"
     guidetolerance="10"
     inkscape:pageopacity="0"
     inkscape:pageshadow="2"
     inkscape:window-width="1920"
     inkscape:window-height="1025"
     id="namedview106"
     showgrid="false"
     inkscape:zoom="1.0606602"
     inkscape:cx="400.02991"
     inkscape:cy="374.67132"
     inkscape:window-x="0"
     inkscape:window-y="27"
     inkscape:window-maximized="1"
     inkscape:current-layer="svg10075" />
  <defs
     id="defs10077">
    <linearGradient
       id="RHEL7">
      <stop
         id="stop13323"
         offset="0"
         style="stop-color:#a3dbe8;stop-opacity:1" />
      <stop
         id="stop13325"
         offset="1"
         style="stop-color:#a3dbe8;stop-opacity:1" />
    </linearGradient>
    <linearGradient
       id="GNOME">
      <stop
         id="stop11074"
         offset="0"
         style="stop-color:#eeedec;stop-opacity:1" />
      <stop
         id="stop11076"
         offset="1"
         style="stop-color:#eeedec;stop-opacity:1" />
    </linearGradient>
    <linearGradient
       id="BLANK">
      <stop
         id="stop7012"
         offset="0"
         style="stop-color:#eeedec;stop-opacity:0" />
      <stop
         id="stop7014"
         offset="1"
         style="stop-color:#eeedec;stop-opacity:0" />
    </linearGradient>
    <linearGradient
       gradientTransform="matrix(1.1834379,0,0,0.896461,5.7016703,415.60382)"
       gradientUnits="userSpaceOnUse"
       id="linearGradient7064"
       x1="-18.33782"
       x2="713.42853"
       y1="490.54935"
       y2="490.54935"
       xlink:href="#GNOME" />
  </defs>
  <metadata
     id="metadata10080">
    <rdf:RDF>
      <cc:Work
         rdf:about="">
        <dc:format>image/svg+xml</dc:format>
        <dc:type
           rdf:resource="http://purl.org/dc/dcmitype/StillImage" />
        <dc:title />
      </cc:Work>
    </rdf:RDF>
  </metadata>
  <g
     id="layer1"
     transform="translate(0,-992.3622)">
    <rect
       height="656"
       id="background"
       style="fill:url(#BLANK);"
       width="866"
       x="-16"
       y="855.36218" />
  </g>
  <g
     id="layer2"
     transform="translate(0,-540)">
    <g
       id="g11020"
       transform="translate(-35,-139.36217)">
      <path
         d="M 137,278 A 17,17 0 1 1 103,278 17,17 0 1 1 137,278 Z"
         id="path11014"
         style="color:#000000;fill:#000000;fill-opacity:0.27522936;stroke:none;stroke-width:1.06985807;marker:none;visibility:visible;display:inline;overflow:visible;enable-background:accumulate"
         transform="translate(2,453.36217)" />
      <text
         id="text11016"
         style="font-size:14px;font-style:normal;font-variant:normal;font-weight:bold;font-stretch:normal;text-align:center;line-height:125%;letter-spacing:0px;word-spacing:0px;writing-mode:lr-tb;text-anchor:middle;fill:#ffffff;fill-opacity:1;stroke:none;font-family:Cantarell;-inkscape-font-specification:Cantarell Bold"
         x="122.29289"
         y="736.36218"
         xml:space="preserve"><tspan
           id="tspan11018"
           x="122.29289"
           y="736.36218">7</tspan></text>
    </g>
    <g
       id="g4890"
       style="display:inline"
       transform="matrix(2.6833333,0,0,2.6833333,-1275.5101,-1072.8539)">
      <path
         d="m 528.04724,641.93933 209.13044,0 c 2.216,0 4,1.784 4,4 l 0,121.72671 -4,0 -209.13044,0 -4,0 0,-121.72671 C 524.04724,643.72333 525.83124,641.93933 528.04724,641.93933 Z"
         id="path5430"
         style="fill:#ffffff;fill-opacity:1;stroke:#000000;stroke-width:1.11801243;stroke-miterlimit:4;stroke-opacity:1;stroke-dasharray:none"
         inkscape:connector-curvature="0" />
      <rect
         height="17.142857"
         id="rect25666"
         rx="0.053416751"
         ry="0.051031448"
         style="color:#000000;fill:#000000;fill-opacity:1;fill-rule:nonzero;stroke:none;stroke-width:5.36666679;marker:none;visibility:visible;display:inline;overflow:visible;enable-background:accumulate"
         width="67.671722"
         x="527.89197"
         y="677.83374" />
      <path
         d="m 524.59833,669.11946 c 212.46132,0 216.29809,0 216.29809,0"
         id="path5361"
         style="fill:none;stroke:#000000;stroke-width:0.3726708;stroke-linecap:butt;stroke-linejoin:miter;stroke-miterlimit:4;stroke-opacity:1;stroke-dasharray:none"
         inkscape:connector-curvature="0" />
      <g
         id="g5363"
         style="fill:#0c0000;fill-opacity:1"
         transform="matrix(0.74997808,0,0,0.74997808,726.64853,644.28885)">
        <g
           id="g5365"
           style="fill:#0c0000;fill-opacity:1;display:inline"
           transform="translate(-60,-518)" />
        <g
           id="g5367"
           style="fill:#0c0000;fill-opacity:1"
           transform="translate(-60,-518)" />
        <g
           id="g5369"
           style="fill:#0c0000;fill-opacity:1"
           transform="translate(-60,-518)" />
        <g
           id="g5371"
           style="fill:#0c0000;fill-opacity:1"
           transform="translate(-60,-518)">
          <g
             id="g5373"
             style="fill:#0c0000;fill-opacity:1;display:inline"
             transform="translate(19,-242)">
            <path
               d="m 45,764 1,0 c 0.01037,-1.2e-4 0.02079,-4.6e-4 0.03125,0 0.254951,0.0112 0.50987,0.12858 0.6875,0.3125 L 49,766.59375 51.3125,764.3125 C 51.578125,764.082 51.759172,764.007 52,764 l 1,0 0,1 c 0,0.28647 -0.03434,0.55065 -0.25,0.75 l -2.28125,2.28125 2.25,2.25 C 52.906938,770.46942 52.999992,770.7347 53,771 l 0,1 -1,0 c -0.265301,-10e-6 -0.530586,-0.0931 -0.71875,-0.28125 L 49,769.4375 46.71875,771.71875 C 46.530586,771.90694 46.26529,772 46,772 l -1,0 0,-1 c -3e-6,-0.26529 0.09306,-0.53058 0.28125,-0.71875 l 2.28125,-2.25 L 45.28125,765.75 C 45.070508,765.55537 44.97809,765.28075 45,765 L 45,764 Z"
               id="path5375"
               style="font-size:xx-small;font-style:normal;font-variant:normal;font-weight:normal;font-stretch:normal;text-indent:0;text-align:start;text-decoration:none;line-height:normal;letter-spacing:normal;word-spacing:normal;text-transform:none;direction:ltr;block-progression:tb;writing-mode:lr-tb;text-anchor:start;color:#bebebe;fill:#0c0000;fill-opacity:1;fill-rule:nonzero;stroke:none;stroke-width:1.78124988;marker:none;visibility:visible;display:inline;overflow:visible;enable-background:new;font-family:Andale Mono;-inkscape-font-specification:Andale Mono"
               inkscape:connector-curvature="0" />
          </g>
        </g>
        <g
           id="g5377"
           style="fill:#0c0000;fill-opacity:1"
           transform="translate(-60,-518)" />
        <g
           id="g5379"
           style="fill:#0c0000;fill-opacity:1"
           transform="translate(-60,-518)" />
        <g
           id="g5381"
           style="fill:#0c0000;fill-opacity:1"
           transform="translate(-60,-518)" />
      </g>
      <g
         id="g7362"
         style="display:inline"
         transform="matrix(0.74534162,0,0,0.74534162,514.10315,448.26854)">
        <rect
           height="16"
           id="rect7364"
           style="color:#bebebe;fill:none;stroke:none;stroke-width:1;marker:none;visibility:visible;display:inline;overflow:visible"
           width="16"
           x="20"
           y="276" />
        <rect
           height="2"
           id="rect13363"
           rx="0.38461545"
           ry="0.37878788"
           style="color:#000000;fill:#000000;fill-opacity:1;fill-rule:nonzero;stroke:none;stroke-width:1;marker:none;visibility:visible;display:inline;overflow:visible;enable-background:new"
           width="2.0000002"
           x="22.9998"
           y="279" />
        <rect
           height="2"
           id="rect13365"
           rx="0.38461545"
           ry="0.37878788"
           style="color:#000000;fill:#000000;fill-opacity:1;fill-rule:nonzero;stroke:none;stroke-width:1;marker:none;visibility:visible;display:inline;overflow:visible;enable-background:new"
           width="2.0000002"
           x="26.9998"
           y="279" />
        <rect
           height="2"
           id="rect13367"
           rx="0.38461545"
           ry="0.37878788"
           style="color:#000000;fill:#000000;fill-opacity:1;fill-rule:nonzero;stroke:none;stroke-width:1;marker:none;visibility:visible;display:inline;overflow:visible;enable-background:new"
           width="2.0000002"
           x="30.9998"
           y="279" />
        <rect
           height="2"
           id="rect13369"
           rx="0.38461545"
           ry="0.37878788"
           style="color:#000000;fill:#000000;fill-opacity:1;fill-rule:nonzero;stroke:none;stroke-width:1;marker:none;visibility:visible;display:inline;overflow:visible;enable-background:new"
           width="2.0000002"
           x="22.9998"
           y="283.01562" />
        <rect
           height="2"
           id="rect13371"
           rx="0.38461545"
           ry="0.37878788"
           style="color:#000000;fill:#000000;fill-opacity:1;fill-rule:nonzero;stroke:none;stroke-width:1;marker:none;visibility:visible;display:inline;overflow:visible;enable-background:new"
           width="2.0000002"
           x="26.9998"
           y="283.01562" />
        <rect
           height="2"
           id="rect13373"
           rx="0.38461545"
           ry="0.37878788"
           style="color:#000000;fill:#000000;fill-opacity:1;fill-rule:nonzero;stroke:none;stroke-width:1;marker:none;visibility:visible;display:inline;overflow:visible;enable-background:new"
           width="2.0000002"
           x="30.9998"
           y="283.01562" />
        <rect
           height="2"
           id="rect13375"
           rx="0.38461545"
           ry="0.37878788"
           style="color:#000000;fill:#000000;fill-opacity:1;fill-rule:nonzero;stroke:none;stroke-width:1;marker:none;visibility:visible;display:inline;overflow:visible;enable-background:new"
           width="2.0000002"
           x="22.9998"
           y="287" />
        <rect
           height="2"
           id="rect13377"
           rx="0.38461545"
           ry="0.37878788"
           style="color:#000000;fill:#000000;fill-opacity:1;fill-rule:nonzero;stroke:none;stroke-width:1;marker:none;visibility:visible;display:inline;overflow:visible;enable-background:new"
           width="2.0000002"
           x="26.9998"
           y="287" />
        <rect
           height="2"
           id="rect13379"
           rx="0.38461545"
           ry="0.37878788"
           style="color:#000000;fill:#000000;fill-opacity:1;fill-rule:nonzero;stroke:none;stroke-width:1;marker:none;visibility:visible;display:inline;overflow:visible;enable-background:new"
           width="2.0000002"
           x="30.9998"
           y="287" />
      </g>
      <rect
         height="85.315605"
         id="rect12010"
         rx="0.14333495"
         ry="0.13693438"
         style="color:#000000;fill:none;stroke:#000000;stroke-width:0.3726708;stroke-miterlimit:4;stroke-opacity:1;stroke-dasharray:none;marker:none;visibility:visible;display:inline;overflow:visible;enable-background:accumulate"
         width="67.080742"
         x="528.07812"
         y="678.02258" />
      <text
         id="text12012"
         style="font-size:5.21739149px;font-style:normal;font-variant:normal;font-weight:bold;font-stretch:normal;text-align:center;line-height:125%;letter-spacing:0px;word-spacing:0px;writing-mode:lr-tb;text-anchor:middle;fill:#000000;fill-opacity:1;stroke:none;font-family:Cantarell;-inkscape-font-specification:Cantarell Bold"
         x="634.84845"
         y="651.00146"
         xml:space="preserve"
         sodipodi:linespacing="125%"><tspan
           id="tspan12014"
           x="634.84845"
           y="651.00146">Online-Konten</tspan></text>
      <rect
         height="10.062137"
         id="rect17500"
         rx="1.9144073"
         ry="1.914407"
         style="color:#000000;fill:none;stroke:#000000;stroke-width:0.74534172;stroke-linecap:square;stroke-linejoin:miter;stroke-miterlimit:4;stroke-opacity:1;stroke-dasharray:none;stroke-dashoffset:0;marker:none;visibility:visible;display:inline;overflow:visible;enable-background:accumulate"
         width="20.12421"
         x="530.12799"
         y="751.24988" />
      <path
         d="m 540.19011,751.52941 0,9.78261"
         id="path17502"
         style="color:#000000;fill:none;stroke:#000000;stroke-width:0.7453416;stroke-linecap:square;stroke-linejoin:miter;stroke-miterlimit:4;stroke-opacity:1;stroke-dasharray:none;stroke-dashoffset:0;marker:none;visibility:visible;display:inline;overflow:visible;enable-background:accumulate"
         inkscape:connector-curvature="0" />
      <g
         id="g31978"
         style="display:inline"
         transform="matrix(0.37267081,0,0,0.37267081,534.97271,650.62879)">
        <rect
           height="16"
           id="rect31980"
           style="color:#bebebe;fill:none;stroke:none;stroke-width:1;marker:none;visibility:visible;display:inline;overflow:visible"
           width="16"
           x="20"
           y="276" />
        <rect
           height="2.0002136"
           id="rect31984"
           style="color:#bebebe;fill:#2e3436;fill-opacity:1;stroke:none;stroke-width:1;marker:none;visibility:visible;display:inline;overflow:visible"
           width="9.9996014"
           x="23.000198"
           y="282.99979" />
      </g>
      <g
         id="g31988"
         style="display:inline"
         transform="matrix(0.37267081,0,0,0.37267081,524.9106,650.62879)">
        <rect
           height="16"
           id="rect31990"
           style="color:#bebebe;fill:none;stroke:none;stroke-width:1;marker:none;visibility:visible;display:inline;overflow:visible"
           width="16"
           x="20"
           y="276" />
        <path
           d="m -174,512 0,4 -4,0 0,2 4,0 0,4 2,0 0,-4 4,0 0,-2 -4,0 0,-4 L -174,512 Z"
           id="rect31992"
           style="color:#bebebe;fill:#2e3436;fill-opacity:1;stroke:none;stroke-width:1;marker:none;visibility:visible;display:inline;overflow:visible"
           transform="translate(201,-233)"
           inkscape:connector-curvature="0" />
      </g>
      <text
         id="text17640"
         style="font-size:5.21739149px;font-style:normal;font-variant:normal;font-weight:bold;font-stretch:normal;text-align:start;line-height:125%;letter-spacing:0px;word-spacing:0px;writing-mode:lr-tb;text-anchor:start;fill:#ffffff;fill-opacity:1;stroke:none;display:inline;font-family:Cantarell;-inkscape-font-specification:Cantarell Bold"
         x="547.86987"
         y="685.02728"
         xml:space="preserve"><tspan
           id="tspan17642"
           x="547.86987"
           y="685.02728">Google</tspan></text>
      <path
         d="m 535.05192,680.62236 -1.32763,-0.006 c -0.93583,0.48755 -1.07583,1.70407 -0.76863,2.81831 0.40603,1.47262 1.21751,2.50559 2.30589,2.16614 1.51819,-0.47362 1.56262,-1.71347 1.09472,-3.16769 C 536.1088,681.66399 535.6498,681.04429 535.05192,680.62218 z m 3.70341,2.30007 c 0,0.6557 -0.26681,1.21538 -0.55901,1.65372 l 0,0.0233 -0.0698,0.0466 c 0,0 -0.18988,0.223 -0.41925,0.44254 -0.22905,0.21959 -0.5823,0.51243 -0.5823,0.51243 -0.28744,0.21603 -0.44254,0.50162 -0.44254,0.81521 0,0.31466 0.19995,0.59907 0.48913,0.81521 0,0 0.58643,0.35931 0.90838,0.62889 0.32182,0.26974 0.69876,0.62887 0.69876,0.62887 0.43589,0.40985 0.72204,1.06297 0.72204,1.79348 0,0.62914 -0.19949,1.19965 -0.53571,1.60714 l -0.51242,0.65217 3.19098,0 c 0.87253,0 1.58385,-0.70792 1.58385,-1.58385 l 0,-8.75773 c 0,-0.87594 -0.71132,-1.58385 -1.58385,-1.58385 -0.42772,-0.005 -1.35763,10e-4 -1.35763,10e-4 l -0.0115,0.73464 -1.91252,0.2145 C 538.64178,682.0527 538.74826,682.53778 538.75546,682.92219 z m -7.4534,1.81677 0,4.19253 c 1.29424,-0.86654 3.61024,-0.88509 3.61024,-0.88509 0,0 0.0101,-0.0139 0,-0.0233 -0.92853,-0.71379 -0.53571,-1.5373 -0.53571,-1.5373 C 532.94078,686.60835 532.28451,686.07248 531.30193,684.73916 z m 3.77329,4.12265 c -1.28986,0.0726 -2.94956,0.60649 -2.98136,1.88664 0,0.76574 0.4985,1.45982 1.21117,1.77018 0,0 0.0256,0.0165 0.0466,0.0233 l 0.0233,0 3.37732,0 c 0,0 0.008,-0.0333 0.0233,-0.0466 1.827,-1.61694 0.44735,-2.55442 -1.118,-3.61023 -0.0283,-0.0188 -0.0698,-0.0233 -0.0698,-0.0233 C 535.42452,688.85384 535.25959,688.85144 535.07533,688.86184 Z"
         id="path14750"
         style="color:#000000;fill:#babdb6;fill-opacity:1;fill-rule:nonzero;stroke:none;stroke-width:0.5;marker:none;visibility:visible;display:inline;overflow:visible;enable-background:new"
         inkscape:connector-curvature="0" />
      <text
         id="text25662"
         style="font-size:4.47204971px;font-style:normal;font-variant:normal;font-weight:normal;font-stretch:normal;text-align:start;line-height:125%;letter-spacing:0px;word-spacing:0px;writing-mode:lr-tb;text-anchor:start;fill:#ffffff;fill-opacity:1;stroke:none;display:inline;font-family:Cantarell;-inkscape-font-specification:Cantarell"
         x="547.86987"
         y="691.73529"
         xml:space="preserve"><tspan
           id="tspan25664"
           x="547.86987"
           y="691.73529">john.doe@gmail.com</tspan></text>
      <text
         id="text26176"
         style="font-size:5.21739149px;font-style:normal;font-variant:normal;font-weight:bold;font-stretch:normal;text-align:start;line-height:125%;letter-spacing:0px;word-spacing:0px;writing-mode:lr-tb;text-anchor:start;fill:#000000;fill-opacity:1;stroke:none;display:inline;font-family:Cantarell;-inkscape-font-specification:Cantarell Bold"
         x="623.14935"
         y="685.02728"
         xml:space="preserve"><tspan
           id="tspan26178"
           x="623.14935"
           y="685.02728">Google</tspan></text>
      <path
         d="m 610.33142,680.62236 -1.32763,-0.006 c -0.93583,0.48755 -1.07583,1.70407 -0.76863,2.81831 0.40603,1.47262 1.21751,2.50559 2.30589,2.16614 1.51819,-0.47362 1.56262,-1.71347 1.09472,-3.16769 C 611.3883,681.66399 610.9293,681.04429 610.33142,680.62218 z m 3.70341,2.30007 c 0,0.6557 -0.26681,1.21538 -0.55901,1.65372 l 0,0.0233 -0.0698,0.0466 c 0,0 -0.18988,0.223 -0.41925,0.44254 -0.22905,0.21959 -0.5823,0.51243 -0.5823,0.51243 -0.28744,0.21603 -0.44254,0.50162 -0.44254,0.81521 0,0.31466 0.19995,0.59907 0.48913,0.81521 0,0 0.58643,0.35931 0.90838,0.62889 0.32182,0.26974 0.69876,0.62887 0.69876,0.62887 0.43589,0.40985 0.72204,1.06297 0.72204,1.79348 0,0.62914 -0.19949,1.19965 -0.53571,1.60714 l -0.51242,0.65217 3.19098,0 c 0.87253,0 1.58385,-0.70792 1.58385,-1.58385 l 0,-8.75773 c 0,-0.87594 -0.71132,-1.58385 -1.58385,-1.58385 -0.42772,-0.005 -1.35763,10e-4 -1.35763,10e-4 l -0.0115,0.73464 -1.91252,0.2145 C 613.92128,682.0527 614.02776,682.53778 614.03496,682.92219 z m -7.4534,1.81677 0,4.19253 c 1.29424,-0.86654 3.61024,-0.88509 3.61024,-0.88509 0,0 0.0101,-0.0139 0,-0.0233 -0.92853,-0.71379 -0.53571,-1.5373 -0.53571,-1.5373 C 608.22028,686.60835 607.56401,686.07248 606.58143,684.73916 z m 3.77329,4.12265 c -1.28986,0.0726 -2.94956,0.60649 -2.98136,1.88664 0,0.76574 0.4985,1.45982 1.21117,1.77018 0,0 0.0256,0.0165 0.0466,0.0233 l 0.0233,0 3.37732,0 c 0,0 0.008,-0.0333 0.0233,-0.0466 1.827,-1.61694 0.44735,-2.55442 -1.118,-3.61023 -0.0283,-0.0188 -0.0698,-0.0233 -0.0698,-0.0233 C 610.70402,688.85384 610.53909,688.85144 610.35483,688.86184 Z"
         id="path26180"
         style="color:#000000;fill:#babdb6;fill-opacity:1;fill-rule:nonzero;stroke:none;stroke-width:0.5;marker:none;visibility:visible;display:inline;overflow:visible;enable-background:new"
         inkscape:connector-curvature="0" />
      <text
         id="text26182"
         style="font-size:4.47204971px;font-style:normal;font-variant:normal;font-weight:normal;font-stretch:normal;text-align:start;line-height:125%;letter-spacing:0px;word-spacing:0px;writing-mode:lr-tb;text-anchor:start;fill:#000000;fill-opacity:1;stroke:none;display:inline;font-family:Cantarell;-inkscape-font-specification:Cantarell"
         x="623.14935"
         y="691.73529"
         xml:space="preserve"><tspan
           id="tspan26184"
           x="623.14935"
           y="691.73529">john.doe@gmail.com</tspan></text>
      <text
         id="text26186"
         style="font-size:5.21739149px;font-style:normal;font-variant:normal;font-weight:normal;font-stretch:normal;text-align:end;line-height:125%;letter-spacing:0px;word-spacing:0px;writing-mode:lr-tb;text-anchor:end;fill:#000000;fill-opacity:1;stroke:none;display:inline;font-family:Cantarell;-inkscape-font-specification:Cantarell"
         x="631.64587"
         y="704.42737"
         xml:space="preserve"
         sodipodi:linespacing="125%"><tspan
           id="tspan26188"
           x="631.64587"
           y="704.42737">Verwenden für</tspan></text>
      <text
         id="text26190"
         style="font-size:5.21739149px;font-style:normal;font-variant:normal;font-weight:normal;font-stretch:normal;text-align:start;line-height:125%;letter-spacing:0px;word-spacing:0px;writing-mode:lr-tb;text-anchor:start;fill:#000000;fill-opacity:1;stroke:none;display:inline;font-family:Cantarell;-inkscape-font-specification:Cantarell"
         x="635.07471"
         y="704.77875"
         xml:space="preserve"
         sodipodi:linespacing="125%"><tspan
           id="tspan26192"
           x="635.07471"
           y="704.77875">E-Mail</tspan></text>
      <g
         id="g3921"
         style="display:inline"
         transform="matrix(0.37267081,0,0,0.37267081,483.7596,556.2081)">
        <rect
           height="24"
           id="rect3923"
           style="fill:#d3d7cf;fill-opacity:1;stroke:none"
           transform="scale(-1,-1)"
           width="74"
           x="-594.42188"
           y="-405.36218" />
        <rect
           height="24"
           id="rect3925"
           style="fill:#000000;fill-opacity:1;stroke:none"
           transform="scale(-1,-1)"
           width="36"
           x="-556.42188"
           y="-405.36218" />
      </g>
      <text
         id="text28655"
         style="font-size:5.21739149px;font-style:normal;font-variant:normal;font-weight:normal;font-stretch:normal;text-align:start;line-height:125%;letter-spacing:0px;word-spacing:0px;writing-mode:lr-tb;text-anchor:start;fill:#000000;fill-opacity:1;stroke:none;display:inline;font-family:Cantarell;-inkscape-font-specification:Cantarell"
         x="635.07471"
         y="715.9588"
         xml:space="preserve"
         sodipodi:linespacing="125%"><tspan
           id="tspan28657"
           x="635.07471"
           y="715.9588">Kalender</tspan></text>
      <g
         id="g28659"
         style="display:inline"
         transform="matrix(0.37267081,0,0,0.37267081,483.7596,567.38823)">
        <rect
           height="24"
           id="rect28661"
           style="fill:#d3d7cf;fill-opacity:1;stroke:none"
           transform="scale(-1,-1)"
           width="74"
           x="-594.42188"
           y="-405.36218" />
        <rect
           height="24"
           id="rect28663"
           style="fill:#000000;fill-opacity:1;stroke:none"
           transform="scale(-1,-1)"
           width="36"
           x="-556.42188"
           y="-405.36218" />
      </g>
      <text
         id="text28673"
         style="font-size:5.21739149px;font-style:normal;font-variant:normal;font-weight:normal;font-stretch:normal;text-align:start;line-height:125%;letter-spacing:0px;word-spacing:0px;writing-mode:lr-tb;text-anchor:start;fill:#000000;fill-opacity:1;stroke:none;display:inline;font-family:Cantarell;-inkscape-font-specification:Cantarell"
         x="635.07471"
         y="727.13885"
         xml:space="preserve"
         sodipodi:linespacing="125%"><tspan
           id="tspan28675"
           x="635.07471"
           y="727.13885">Kontakte</tspan></text>
      <g
         id="g28677"
         style="display:inline"
         transform="matrix(0.37267081,0,0,0.37267081,483.7596,578.56836)">
        <rect
           height="24"
           id="rect28679"
           style="fill:#d3d7cf;fill-opacity:1;stroke:none"
           transform="scale(-1,-1)"
           width="74"
           x="-594.42188"
           y="-405.36218" />
        <rect
           height="24"
           id="rect28681"
           style="fill:#000000;fill-opacity:1;stroke:none"
           transform="scale(-1,-1)"
           width="36"
           x="-556.42188"
           y="-405.36218" />
      </g>
      <text
         id="text28691"
         style="font-size:5.21739149px;font-style:normal;font-variant:normal;font-weight:normal;font-stretch:normal;text-align:start;line-height:125%;letter-spacing:0px;word-spacing:0px;writing-mode:lr-tb;text-anchor:start;fill:#000000;fill-opacity:1;stroke:none;display:inline;font-family:Cantarell;-inkscape-font-specification:Cantarell"
         x="635.07471"
         y="738.31891"
         xml:space="preserve"
         sodipodi:linespacing="125%"><tspan
           id="tspan28693"
           x="635.07471"
           y="738.31891">Unterhaltung</tspan></text>
      <g
         id="g28695"
         style="display:inline"
         transform="matrix(0.37267081,0,0,0.37267081,483.7596,589.74849)">
        <rect
           height="24"
           id="rect28697"
           style="fill:#d3d7cf;fill-opacity:1;stroke:none"
           transform="scale(-1,-1)"
           width="74"
           x="-594.42188"
           y="-405.36218" />
        <rect
           height="24"
           id="rect28699"
           style="fill:#000000;fill-opacity:1;stroke:none"
           transform="scale(-1,-1)"
           width="36"
           x="-556.42188"
           y="-405.36218" />
      </g>
      <text
         id="text28709"
         style="font-size:5.21739149px;font-style:normal;font-variant:normal;font-weight:normal;font-stretch:normal;text-align:start;line-height:125%;letter-spacing:0px;word-spacing:0px;writing-mode:lr-tb;text-anchor:start;fill:#000000;fill-opacity:1;stroke:none;display:inline;font-family:Cantarell;-inkscape-font-specification:Cantarell"
         x="635.07471"
         y="749.49896"
         xml:space="preserve"
         sodipodi:linespacing="125%"><tspan
           id="tspan28711"
           x="635.07471"
           y="749.49896">Dokumente</tspan></text>
      <g
         id="g28713"
         style="display:inline"
         transform="matrix(0.37267081,0,0,0.37267081,483.7596,600.92862)">
        <rect
           height="24"
           id="rect28715"
           style="fill:#d3d7cf;fill-opacity:1;stroke:none"
           transform="scale(-1,-1)"
           width="74"
           x="-594.42188"
           y="-405.36218" />
        <rect
           height="24"
           id="rect28717"
           style="fill:#000000;fill-opacity:1;stroke:none"
           transform="scale(-1,-1)"
           width="36"
           x="-556.42188"
           y="-405.36218" />
      </g>
      <text
         id="text28760"
         style="font-size:5.21739149px;font-style:normal;font-variant:normal;font-weight:bold;font-stretch:normal;text-align:start;line-height:125%;letter-spacing:0px;word-spacing:0px;writing-mode:lr-tb;text-anchor:start;fill:#ffffff;fill-opacity:1;stroke:none;font-family:Cantarell;-inkscape-font-specification:Cantarell Bold"
         x="680.31433"
         y="704.66602"
         xml:space="preserve"><tspan
           id="tspan28762"
           x="680.31433"
           y="704.66602">ON</tspan></text>
      <text
         id="text28764"
         style="font-size:5.21739149px;font-style:normal;font-variant:normal;font-weight:bold;font-stretch:normal;text-align:start;line-height:125%;letter-spacing:0px;word-spacing:0px;writing-mode:lr-tb;text-anchor:start;fill:#ffffff;fill-opacity:1;stroke:none;font-family:Cantarell;-inkscape-font-specification:Cantarell Bold"
         x="680.31433"
         y="715.84607"
         xml:space="preserve"><tspan
           id="tspan28766"
           x="680.31433"
           y="715.84607">ON</tspan></text>
      <text
         id="text28768"
         style="font-size:5.21739149px;font-style:normal;font-variant:normal;font-weight:bold;font-stretch:normal;text-align:start;line-height:125%;letter-spacing:0px;word-spacing:0px;writing-mode:lr-tb;text-anchor:start;fill:#ffffff;fill-opacity:1;stroke:none;font-family:Cantarell;-inkscape-font-specification:Cantarell Bold"
         x="680.31433"
         y="727.02612"
         xml:space="preserve"><tspan
           id="tspan28770"
           x="680.31433"
           y="727.02612">ON</tspan></text>
      <text
         id="text28772"
         style="font-size:5.21739149px;font-style:normal;font-variant:normal;font-weight:bold;font-stretch:normal;text-align:start;line-height:125%;letter-spacing:0px;word-spacing:0px;writing-mode:lr-tb;text-anchor:start;fill:#ffffff;fill-opacity:1;stroke:none;font-family:Cantarell;-inkscape-font-specification:Cantarell Bold"
         x="680.31433"
         y="738.20618"
         xml:space="preserve"><tspan
           id="tspan28774"
           x="680.31433"
           y="738.20618">ON</tspan></text>
      <text
         id="text28776"
         style="font-size:5.21739149px;font-style:normal;font-variant:normal;font-weight:bold;font-stretch:normal;text-align:start;line-height:125%;letter-spacing:0px;word-spacing:0px;writing-mode:lr-tb;text-anchor:start;fill:#ffffff;fill-opacity:1;stroke:none;font-family:Cantarell;-inkscape-font-specification:Cantarell Bold"
         x="680.31433"
         y="749.38623"
         xml:space="preserve"><tspan
           id="tspan28778"
           x="680.31433"
           y="749.38623">ON</tspan></text>
      <path
         d="m 527.89196,749.24446 67.08075,0"
         id="path6614"
         style="color:#000000;color-interpolation:sRGB;color-interpolation-filters:linearRGB;fill:none;stroke:#000000;stroke-width:0.3726708;stroke-opacity:1;marker:none;visibility:visible;display:inline;overflow:visible;enable-background:accumulate;clip-rule:nonzero"
         inkscape:connector-curvature="0" />
    </g>
  </g>
</svg>
